<svg width="20" height="20" viewBox="0 0 20 20" fill="none" xmlns="http://www.w3.org/2000/svg">
<path d="M15.8332 8.95829H14.1665C12.1498 8.95829 11.0415 7.84996 11.0415 5.83329V4.16663C11.0415 2.14996 12.1498 1.04163 14.1665 1.04163H15.8332C17.8498 1.04163 18.9582 2.14996 18.9582 4.16663V5.83329C18.9582 7.84996 17.8498 8.95829 15.8332 8.95829ZM14.1665 2.29163C12.8498 2.29163 12.2915 2.84996 12.2915 4.16663V5.83329C12.2915 7.14996 12.8498 7.70829 14.1665 7.70829H15.8332C17.1498 7.70829 17.7082 7.14996 17.7082 5.83329V4.16663C17.7082 2.84996 17.1498 2.29163 15.8332 2.29163H14.1665Z" fill="#212126"/>
<path d="M5.83317 18.9583H4.1665C2.14984 18.9583 1.0415 17.85 1.0415 15.8333V14.1666C1.0415 12.15 2.14984 11.0416 4.1665 11.0416H5.83317C7.84984 11.0416 8.95817 12.15 8.95817 14.1666V15.8333C8.95817 17.85 7.84984 18.9583 5.83317 18.9583ZM4.1665 12.2916C2.84984 12.2916 2.2915 12.85 2.2915 14.1666V15.8333C2.2915 17.15 2.84984 17.7083 4.1665 17.7083H5.83317C7.14984 17.7083 7.70817 17.15 7.70817 15.8333V14.1666C7.70817 12.85 7.14984 12.2916 5.83317 12.2916H4.1665Z" fill="#212126"/>
<path d="M4.99984 8.95829C2.8165 8.95829 1.0415 7.18329 1.0415 4.99996C1.0415 2.81663 2.8165 1.04163 4.99984 1.04163C7.18317 1.04163 8.95817 2.81663 8.95817 4.99996C8.95817 7.18329 7.18317 8.95829 4.99984 8.95829ZM4.99984 2.29163C3.50817 2.29163 2.2915 3.50829 2.2915 4.99996C2.2915 6.49163 3.50817 7.70829 4.99984 7.70829C6.4915 7.70829 7.70817 6.49163 7.70817 4.99996C7.70817 3.50829 6.4915 2.29163 4.99984 2.29163Z" fill="#212126"/>
<path d="M14.9998 18.9583C12.8165 18.9583 11.0415 17.1833 11.0415 15C11.0415 12.8166 12.8165 11.0416 14.9998 11.0416C17.1832 11.0416 18.9582 12.8166 18.9582 15C18.9582 17.1833 17.1832 18.9583 14.9998 18.9583ZM14.9998 12.2916C13.5082 12.2916 12.2915 13.5083 12.2915 15C12.2915 16.4916 13.5082 17.7083 14.9998 17.7083C16.4915 17.7083 17.7082 16.4916 17.7082 15C17.7082 13.5083 16.4915 12.2916 14.9998 12.2916Z" fill="#212126"/>
</svg>
