<?xml version="1.0" encoding="UTF-8"?>
<svg version="1.1" xmlns="http://www.w3.org/2000/svg" width="559" height="446">
<path d="M0 0 C1.01586182 0.32145996 1.01586182 0.32145996 2.05224609 0.64941406 C16.03716478 5.15053336 30.89279802 12.06852135 41 23 C41.98828125 25.515625 41.98828125 25.515625 42 28 C40.7421875 30.09765625 40.7421875 30.09765625 38.875 32.0625 C37.90820312 33.08923828 37.90820312 33.08923828 36.921875 34.13671875 C34.73320539 36.25866063 32.42054061 38.14899836 30 40 C29.67 40.66 29.34 41.32 29 42 C31.74961511 42.94607807 31.74961511 42.94607807 35 43 C37.58363062 40.91886589 37.58363062 40.91886589 40 38 C41.25420837 36.87698497 42.52556989 35.77286274 43.8125 34.6875 C44.41707031 34.17574219 45.02164063 33.66398437 45.64453125 33.13671875 C46.09183594 32.76160156 46.53914062 32.38648438 47 32 C54.80905796 33.89310496 59.09113977 41.92192924 63.125 48.25 C78.17510286 73.5074944 83.64748409 105.39207929 77.1015625 134.17578125 C72.36345207 150.62475328 64.74121234 173.88666654 49 183 C43.59378528 182.94539177 40.76086884 179.3397022 37.203125 175.734375 C36.56888611 175.10396301 35.93464722 174.47355103 35.28118896 173.82403564 C33.94506853 172.49063299 32.61396947 171.15218228 31.28759766 169.80908203 C29.25714685 167.7572222 27.20626262 165.72755588 25.15234375 163.69921875 C23.85548638 162.39971808 22.55987041 161.0989771 21.265625 159.796875 C20.65213196 159.19147888 20.03863892 158.58608276 19.40655518 157.96234131 C14.0787183 152.51547849 14.0787183 152.51547849 14 148 C15.109375 145.3515625 15.109375 145.3515625 16.75 142.625 C19.16061759 138.48210139 21.22155414 134.44611465 23 130 C22.05125 130.66 21.1025 131.32 20.125 132 C15.53964924 134.67400332 11.16371523 134.37403169 6 134 C6.13277344 134.75023437 6.26554688 135.50046875 6.40234375 136.2734375 C7.53493681 142.83751696 8.44195394 149.36218899 9 156 C9.56847656 156.20753906 10.13695312 156.41507813 10.72265625 156.62890625 C20.04457709 160.3483371 24.61615489 166.27090366 30.09375 174.4375 C32.75989626 178.02149989 35.89698694 180.97655411 39.1796875 183.9921875 C41.12812522 186.14132267 41.92295802 187.10542266 42 190 C36.34325698 202.41394458 17.19852541 209.17521111 5.125 213.75 C2.76061505 214.53282106 0.38479395 215.28175016 -2 216 C-2.63502441 216.19609863 -3.27004883 216.39219727 -3.92431641 216.59423828 C-32.8598427 225.22759975 -63.8017089 219.85860649 -90.125 206 C-95.84676105 202.88261111 -101.12719987 199.33503615 -106 195 C-106.57492188 194.50371094 -107.14984375 194.00742187 -107.7421875 193.49609375 C-109 192 -109 192 -108.875 188.875 C-107.87760565 184.45796788 -106.53439907 180.25578611 -105 176 C-105.51949219 176.5053125 -106.03898437 177.010625 -106.57421875 177.53125 C-107.27160156 178.1809375 -107.96898437 178.830625 -108.6875 179.5 C-109.37199219 180.1496875 -110.05648437 180.799375 -110.76171875 181.46875 C-113.48553266 183.33216196 -114.76400044 183.5701523 -118 183 C-132.55653957 172.42164516 -141.42290592 147.60132988 -144.6328125 130.66015625 C-149.01240119 98.64744846 -144.71067886 67.83022237 -125.078125 41.4140625 C-118.73892386 33.1102329 -118.73892386 33.1102329 -115.6171875 32.64453125 C-112.2532628 33.10142252 -111.35901876 34.18002251 -109.125 36.6875 C-105.667627 40.38807224 -102.20762426 43.19491716 -98 46 C-97.34 45.67 -96.68 45.34 -96 45 C-96.29690965 41.5703906 -96.81705026 40.19424294 -99.21484375 37.6484375 C-100.11332031 36.89820313 -101.01179688 36.14796875 -101.9375 35.375 C-104.79888965 32.96237506 -106.9158202 31.12626971 -109 28 C-108.7939502 25.26125476 -108.42882323 23.56015034 -106.75 21.3671875 C-101.93316885 17.2599788 -96.78112013 13.72604977 -91.5 10.25 C-90.7884375 9.77804199 -90.076875 9.30608398 -89.34375 8.81982422 C-81.76755619 3.94717567 -73.98549901 1.5928782 -65.3125 -0.625 C-64.48427734 -0.8415625 -63.65605469 -1.058125 -62.80273438 -1.28125 C-43.24450519 -6.35480185 -19.27990222 -6.40550987 0 0 Z M-79 139 C-81.69433317 140.87197454 -81.69433317 140.87197454 -84 143 C-83.4740625 143.804375 -83.4740625 143.804375 -82.9375 144.625 C-81.60748597 147.99436888 -81.84948325 149.54844975 -83 153 C-84.72440491 155.01318086 -86.54537 156.79688654 -88.50390625 158.58203125 C-88.99761719 159.04996094 -89.49132812 159.51789063 -90 160 C-90 160.33 -90 160.66 -90 161 C-86.04 161.33 -82.08 161.66 -78 162 C-77.29022167 158.45110834 -76.89919191 156.13387675 -77 152.6875 C-77.0580384 148.36363936 -76.62209962 144.2769349 -76 140 C-76.99 139.67 -77.98 139.34 -79 139 Z " fill="#E8CDF7" transform="translate(313,165)"/>
<path d="M0 0 C1.01586182 0.32145996 1.01586182 0.32145996 2.05224609 0.64941406 C16.03716478 5.15053336 30.89279802 12.06852135 41 23 C41.98828125 25.515625 41.98828125 25.515625 42 28 C40.7421875 30.09765625 40.7421875 30.09765625 38.875 32.0625 C37.90820312 33.08923828 37.90820312 33.08923828 36.921875 34.13671875 C34.73320539 36.25866063 32.42054061 38.14899836 30 40 C29.67 40.66 29.34 41.32 29 42 C26.37383124 43.17486497 23.72955415 44.09014862 21 45 C20.74347656 44.23816406 20.48695313 43.47632813 20.22265625 42.69140625 C16.28197316 32.06350338 9.47073048 23.81035404 -1 19 C-7.26750173 16.66904357 -13.17525803 16.73053391 -19.8125 16.8125 C-21.47430298 16.82543091 -21.47430298 16.82543091 -23.16967773 16.83862305 C-51.70881129 16.11246341 -51.70881129 16.11246341 -77 27 C-79.25754606 29.5260848 -81.20665213 32.1277274 -83 35 C-83.99 34.67 -84.98 34.34 -86 34 C-86.185625 35.3921875 -86.185625 35.3921875 -86.375 36.8125 C-88.37392241 50.74784483 -88.37392241 50.74784483 -90 54 C-92.97 53.67 -95.94 53.34 -99 53 C-99.804375 54.0725 -100.60875 55.145 -101.4375 56.25 C-101.88996094 56.85328125 -102.34242188 57.4565625 -102.80859375 58.078125 C-105.33195514 62.14859649 -105.10957691 66.04230853 -105.0625 70.75 C-105.05347656 71.92046875 -105.04445312 73.0909375 -105.03515625 74.296875 C-105.02355469 75.18890625 -105.01195312 76.0809375 -105 77 C-104.690625 75.741875 -104.38125 74.48375 -104.0625 73.1875 C-101.96152445 66.78258424 -97.68461355 61.75572723 -93 57 C-92.34 57 -91.68 57 -91 57 C-91.433125 58.74023438 -91.433125 58.74023438 -91.875 60.515625 C-96.35927091 79.09621189 -96.35927091 79.09621189 -91 97 C-89.91076726 98.22181238 -88.80648324 99.43037454 -87.6875 100.625 C-84.30773667 104.70782186 -84.71952906 108.47303824 -85.125 113.5 C-85.3669273 116.01106715 -85.666078 118.49862066 -86 121 C-85.34 121 -84.68 121 -84 121 C-83.67 115.39 -83.34 109.78 -83 104 C-78 108 -78 108 -76.6875 109.625 C-73.86363917 111.92592364 -70.52523151 112.24872115 -67 113 C-68.07148084 115.15292894 -69.15381582 117.29900645 -70.25390625 119.4375 C-70.68574219 120.283125 -71.11757812 121.12875 -71.5625 122 C-71.99691406 122.845625 -72.43132812 123.69125 -72.87890625 124.5625 C-74.06953442 126.90997546 -74.06953442 126.90997546 -74.46484375 129.25 C-74.64144531 129.8275 -74.81804687 130.405 -75 131 C-75.99 131.33 -76.98 131.66 -78 132 C-78.95117358 134.03277473 -78.95117358 134.03277473 -79.5625 136.4375 C-80.80269058 140.80269058 -80.80269058 140.80269058 -83 143 C-82.649375 143.53625 -82.29875 144.0725 -81.9375 144.625 C-80.60748597 147.99436888 -80.84948325 149.54844975 -82 153 C-85.54168833 157.33879466 -89.48170884 161.24987072 -94.9375 162.875 C-98.43132497 164.15844591 -99.73727332 165.05845532 -102 168 C-102.62647288 169.44889102 -103.22837441 170.90852437 -103.8125 172.375 C-105.77591704 177.05164294 -108.4519593 180.58887655 -113 183 C-116.01884317 183.44478254 -117.39545217 183.43932979 -119.88671875 181.62890625 C-141.30390804 157.0525654 -148.04525817 125.90495656 -146 94 C-143.69092181 71.88995562 -133.79549798 48.79549798 -118 33 C-115.6171875 32.64453125 -115.6171875 32.64453125 -113 33 C-111.0078125 34.57421875 -111.0078125 34.57421875 -109.125 36.6875 C-105.667627 40.38807224 -102.20762426 43.19491716 -98 46 C-97.34 45.67 -96.68 45.34 -96 45 C-96.29690965 41.5703906 -96.81705026 40.19424294 -99.21484375 37.6484375 C-100.11332031 36.89820313 -101.01179688 36.14796875 -101.9375 35.375 C-104.79888965 32.96237506 -106.9158202 31.12626971 -109 28 C-108.7939502 25.26125476 -108.42882323 23.56015034 -106.75 21.3671875 C-101.93316885 17.2599788 -96.78112013 13.72604977 -91.5 10.25 C-90.7884375 9.77804199 -90.076875 9.30608398 -89.34375 8.81982422 C-81.76755619 3.94717567 -73.98549901 1.5928782 -65.3125 -0.625 C-64.48427734 -0.8415625 -63.65605469 -1.058125 -62.80273438 -1.28125 C-43.24450519 -6.35480185 -19.27990222 -6.40550987 0 0 Z " fill="#660E9A" transform="translate(313,165)"/>
<path d="M0 0 C10.49236105 2.06407103 15.56479861 7.29008189 21.4375 15.9375 C22.27474609 17.19240234 22.27474609 17.19240234 23.12890625 18.47265625 C25.77650448 22.04884844 28.90995654 24.98846855 32.1796875 27.9921875 C34.12812522 30.14132267 34.92295802 31.10542266 35 34 C29.34325698 46.41394458 10.19852541 53.17521111 -1.875 57.75 C-4.23938495 58.53282106 -6.61520605 59.28175016 -9 60 C-9.63502441 60.19609863 -10.27004883 60.39219727 -10.92431641 60.59423828 C-39.8598427 69.22759975 -70.8017089 63.85860649 -97.125 50 C-102.84676105 46.88261111 -108.12719987 43.33503615 -113 39 C-113.57492188 38.50242187 -114.14984375 38.00484375 -114.7421875 37.4921875 C-116 36 -116 36 -115.875 32.9375 C-114.95539787 28.18955423 -113.45962998 23.60344839 -112 19 C-111.773125 18.175 -111.54625 17.35 -111.3125 16.5 C-109.88058138 11.55337206 -108.68091756 8.65961225 -104 6 C-98.40502667 3.60215429 -93.84008523 4.20801926 -87.96484375 4.83984375 C-85.21332574 4.98847648 -83.31645917 4.78310317 -80.6875 4.0625 C-74.39608894 2.41172609 -64.81713324 0.81355778 -58.9609375 4.16796875 C-56.25593269 7.24471399 -55.80479961 9.97600195 -55 14 C-48.4 14 -41.8 14 -35 14 C-34.67 11.69 -34.34 9.38 -34 7 C-31.47258592 3.58140186 -30.07606181 2.19465056 -25.86206055 1.43237305 C-24.71519775 1.45855713 -23.56833496 1.48474121 -22.38671875 1.51171875 C-21.13955078 1.52783203 -19.89238281 1.54394531 -18.60742188 1.56054688 C-17.31384766 1.60244141 -16.02027344 1.64433594 -14.6875 1.6875 C-13.37458984 1.71005859 -12.06167969 1.73261719 -10.70898438 1.75585938 C-7.4714987 1.81472275 -4.23633 1.89691196 -1 2 C-0.67 1.34 -0.34 0.68 0 0 Z " fill="#AD53D6" transform="translate(320,321)"/>
<path d="M0 0 C7.80905796 1.89310496 12.09113977 9.92192924 16.125 16.25 C31.17510286 41.5074944 36.64748409 73.39207929 30.1015625 102.17578125 C25.36345207 118.62475328 17.74121234 141.88666654 2 151 C-3.40621472 150.94539177 -6.23913116 147.3397022 -9.796875 143.734375 C-10.43111389 143.10396301 -11.06535278 142.47355103 -11.71881104 141.82403564 C-13.05493147 140.49063299 -14.38603053 139.15218228 -15.71240234 137.80908203 C-17.74285315 135.7572222 -19.79373738 133.72755588 -21.84765625 131.69921875 C-23.14451362 130.39971808 -24.44012959 129.0989771 -25.734375 127.796875 C-26.34786804 127.19147888 -26.96136108 126.58608276 -27.59344482 125.96234131 C-32.9212817 120.51547849 -32.9212817 120.51547849 -33 116 C-31.890625 113.3515625 -31.890625 113.3515625 -30.25 110.625 C-27.83938241 106.48210139 -25.77844586 102.44611465 -24 98 C-25.03125 98.680625 -26.0625 99.36125 -27.125 100.0625 C-30.07399705 101.77423963 -30.86316837 102.00995139 -34.4375 101.75 C-35.7059375 101.37875 -35.7059375 101.37875 -37 101 C-37.33 98.03 -37.66 95.06 -38 92 C-38.77601563 91.93296875 -39.55203125 91.8659375 -40.3515625 91.796875 C-43 91 -43 91 -44.3359375 88.890625 C-44.67882812 88.01921875 -45.02171875 87.1478125 -45.375 86.25 C-47.72518296 81.00901692 -50.09081685 78.88775479 -55 76 C-54.505 75.01 -54.505 75.01 -54 74 C-49.31604754 72.85757257 -44.78644729 72.91747505 -40 73 C-39.896875 72.4225 -39.79375 71.845 -39.6875 71.25 C-38.89103535 68.64338842 -37.80934723 67.0264689 -36 65 C-35.34 65 -34.68 65 -34 65 C-33.505 73.415 -33.505 73.415 -33 82 C-32.34 82 -31.68 82 -31 82 C-31.0928125 81.20335937 -31.185625 80.40671875 -31.28125 79.5859375 C-31.86408641 71.03073164 -31.86408641 71.03073164 -29.359375 68.04296875 C-27.29065778 66.59103574 -25.16483581 65.30221924 -23 64 C-17.39956209 57.95742225 -16.40958394 52.32032164 -16.4609375 44.2578125 C-16.97913617 38.10161225 -19.36463141 32.3759804 -21.59741211 26.66577148 C-21.91718018 25.84407471 -22.23694824 25.02237793 -22.56640625 24.17578125 C-22.86490479 23.44270752 -23.16340332 22.70963379 -23.47094727 21.9543457 C-24 20 -24 20 -23 17 C-11.3468825 29.4733612 -11.3468825 29.4733612 -10.625 36.8125 C-11 40 -11 40 -13 42 C-11.68 42 -10.36 42 -9 42 C-6.01573642 36.40450579 -6.05965759 30.180309 -7.828125 24.19921875 C-9.74229299 19.17891045 -9.74229299 19.17891045 -13 15 C-12.89637225 11.99479528 -11.88866399 10.87556563 -9.875 8.625 C-6.64381448 5.67478713 -3.35231742 2.81130942 0 0 Z " fill="#660E9B" transform="translate(360,197)"/>
<path d="M0 0 C0.9266748 -0.01756348 1.85334961 -0.03512695 2.80810547 -0.05322266 C14.05346636 -0.04311174 23.47280253 4.63704108 31.7421875 12.265625 C38.38906273 19.51157482 41.09824545 27.30133181 43.79296875 36.65234375 C44.36688112 39.20897605 44.36688112 39.20897605 45.625 40.3125 C46.4569424 50.36400081 45.86229421 57.25128747 39.375 65 C38.4675 65.763125 37.56 66.52625 36.625 67.3125 C36.10679687 67.7559375 35.58859375 68.199375 35.0546875 68.65625 C29.30545352 72.93706491 23.2155984 73.39770324 16.23828125 74.05908203 C11.83056645 74.48651177 7.43011303 74.9799979 3.02856445 75.46630859 C0.56682457 75.73704984 -1.89558468 76.00177779 -4.35864258 76.26025391 C-5.49454834 76.38190918 -6.6304541 76.50356445 -7.80078125 76.62890625 C-8.82598877 76.73662354 -9.85119629 76.84434082 -10.9074707 76.95532227 C-13.37216275 77.18005354 -13.37216275 77.18005354 -15.375 78.3125 C-18.597792 78.57854662 -21.82995022 78.54409402 -25.0625 78.5625 C-25.94873047 78.583125 -26.83496094 78.60375 -27.74804688 78.625 C-35.89505824 78.67324285 -41.63767618 76.71493679 -47.6640625 71.0703125 C-48.22867188 70.49023438 -48.79328125 69.91015625 -49.375 69.3125 C-49.96023437 68.73242188 -50.54546875 68.15234375 -51.1484375 67.5546875 C-56.78413244 60.80772877 -56.3301151 52.97993742 -55.65234375 44.63574219 C-53.88383055 29.82133055 -53.88383055 29.82133055 -49.375 25.3125 C-48.983125 24.28125 -48.59125 23.25 -48.1875 22.1875 C-44.51437713 13.44110345 -37.52647961 8.59987789 -29.375 4.3125 C-28.73691406 3.9515625 -28.09882813 3.590625 -27.44140625 3.21875 C-19.21977279 -0.38695692 -8.83115175 0.09003849 0 0 Z " fill="#2B0B3D" transform="translate(283.375,189.6875)"/>
<path d="M0 0 C5.22178567 3.27641454 7.84342347 7.25335782 10 13 C10 13.66 10 14.32 10 15 C11.65 15 13.3 15 15 15 C16.85776765 18.13498292 17.20140476 20.37471432 17 24 C15.35 24.66 13.7 25.32 12 26 C12.144375 26.75023437 12.28875 27.50046875 12.4375 28.2734375 C15.58415842 45.62376238 15.58415842 45.62376238 12 51 C9.26611328 51.27709961 9.26611328 51.27709961 5.8203125 51.15234375 C4.58152344 51.12462891 3.34273438 51.09691406 2.06640625 51.06835938 C-0.55352687 50.98137448 -3.17332604 50.89025284 -5.79296875 50.79492188 C-7.03433594 50.76849609 -8.27570313 50.74207031 -9.5546875 50.71484375 C-10.69405762 50.67480225 -11.83342773 50.63476074 -13.00732422 50.59350586 C-16.04428204 50.77526054 -16.04428204 50.77526054 -18.27783203 52.58032227 C-20.56758988 55.51258725 -20.56758988 55.51258725 -22 62 C-28.6 62 -35.2 62 -42 62 C-43.32 59.36 -44.64 56.72 -46 54 C-47.90736636 51.65636352 -47.90736636 51.65636352 -51.1953125 51.76953125 C-53.14050781 51.79080078 -53.14050781 51.79080078 -55.125 51.8125 C-55.79990479 51.81894531 -56.47480957 51.82539063 -57.17016602 51.83203125 C-61.8555341 51.90419189 -66.37991435 52.2457003 -71 53 C-73.03551543 45.76984919 -72.06632798 39.10300242 -70 32 C-71.32 32 -72.64 32 -74 32 C-73.67 29.36 -73.34 26.72 -73 24 C-71.68 23.67 -70.36 23.34 -69 23 C-68.67 20.69 -68.34 18.38 -68 16 C-67.01 15.67 -66.02 15.34 -65 15 C-63.66172696 13.33729713 -62.32810215 11.67083819 -61 10 C-60.34 10 -59.68 10 -59 10 C-59 9.34 -59 8.68 -59 8 C-52.84765625 7.90234375 -52.84765625 7.90234375 -51 8 C-50 9 -50 9 -49.875 12.6875 C-49.91263863 16.21925789 -50.41926135 19.5155681 -51 23 C-51.53910141 28.21092837 -51.53910141 28.21092837 -49.6875 32.9375 C-45.60367229 35.50879893 -41.33455577 35.19231111 -36.6875 35.1875 C-35.48830933 35.1862915 -35.48830933 35.1862915 -34.26489258 35.18505859 C-25.34912941 35.09452521 -16.25407533 34.63118286 -8 31 C-7.42740161 19.21608293 -7.42740161 19.21608293 -12.5625 9.125 C-13.366875 8.42375 -14.17125 7.7225 -15 7 C-15.495 5.515 -15.495 5.515 -16 4 C-14.6078125 3.566875 -14.6078125 3.566875 -13.1875 3.125 C-3.24312896 -0.38477801 -3.24312896 -0.38477801 0 0 Z " fill="#ECD2FA" transform="translate(307,273)"/>
<path d="M0 0 C3.33938974 -0.07830157 6.67800863 -0.12772659 10.01806641 -0.16748047 C11.0730835 -0.1889917 12.12810059 -0.21050293 13.21508789 -0.23266602 C25.50610158 -0.28462611 34.25492751 4.61254504 43.20556641 12.83251953 C47.33227357 17.09925469 50.89306641 22.96197631 50.89306641 29.08251953 C51.42931641 28.58751953 51.96556641 28.09251953 52.51806641 27.58251953 C55.54424778 25.67124709 57.37011157 25.7077371 60.89306641 26.08251953 C64.15992307 28.26042398 64.80430895 29.44239031 66.45556641 32.89501953 C66.86935547 33.74708984 67.28314453 34.59916016 67.70947266 35.47705078 C70.51066381 41.64336926 71.60738373 46.2853437 70.89306641 53.08251953 C69.70556641 56.14501953 69.70556641 56.14501953 67.89306641 58.08251953 C65.20556641 58.89501953 65.20556641 58.89501953 62.89306641 59.08251953 C63.55306641 58.09251953 64.21306641 57.10251953 64.89306641 56.08251953 C65.85322496 50.08152857 63.9455826 46.9337237 60.56103516 42.23876953 C58.4054179 39.45211678 56.20845707 36.73840882 53.89306641 34.08251953 C55.32240424 39.68075937 56.84949658 45.05950736 59.08056641 50.39501953 C61.88024848 57.94010868 62.66610012 66.98035259 59.39306641 74.52001953 C56.5200542 79.31526293 51.89361756 83.58224395 46.89306641 86.08251953 C46.42407678 88.89850443 46.42407678 88.89850443 46.26806641 92.14501953 C46.19330078 93.24974609 46.11853516 94.35447266 46.04150391 95.49267578 C45.96802734 96.77464844 45.96802734 96.77464844 45.89306641 98.08251953 C45.23306641 98.08251953 44.57306641 98.08251953 43.89306641 98.08251953 C42.36040058 95.01718789 42.7903017 91.81497681 42.83056641 88.45751953 C42.83507812 87.75111328 42.83958984 87.04470703 42.84423828 86.31689453 C42.85602766 84.57206678 42.87396316 82.82728253 42.89306641 81.08251953 C40.91306641 82.07251953 40.91306641 82.07251953 38.89306641 83.08251953 C38.89306641 82.42251953 38.89306641 81.76251953 38.89306641 81.08251953 C37.40806641 81.57751953 37.40806641 81.57751953 35.89306641 82.08251953 C35.56306641 81.42251953 35.23306641 80.76251953 34.89306641 80.08251953 C33.90306641 80.57751953 33.90306641 80.57751953 32.89306641 81.08251953 C32.23306641 80.42251953 31.57306641 79.76251953 30.89306641 79.08251953 C36.64306641 75.08251953 36.64306641 75.08251953 38.89306641 75.08251953 C39.17923828 74.49212891 39.46541016 73.90173828 39.76025391 73.29345703 C40.89306641 71.08251953 40.89306641 71.08251953 43.01806641 67.70751953 C46.26323817 61.16837642 46.04166321 53.24325285 44.12744141 46.30908203 C43.14727911 43.84311816 42.03657021 41.47635967 40.89306641 39.08251953 C40.28409729 37.39674665 39.67996036 35.70922067 39.08056641 34.02001953 C34.86794589 23.70636241 27.65912895 17.27696862 17.89306641 12.08251953 C12.14307583 9.94878809 6.82165043 9.73350687 0.76806641 9.77001953 C-0.66206787 9.77630371 -0.66206787 9.77630371 -2.12109375 9.78271484 C-8.96821085 9.88852267 -15.69674072 10.41578243 -22.48193359 11.33251953 C-23.33029785 11.44168701 -24.17866211 11.55085449 -25.05273438 11.66333008 C-33.82806861 12.99544084 -40.39218194 16.25269438 -46.10693359 23.08251953 C-47.05581965 25.79692423 -47.05581965 25.79692423 -47.10693359 28.08251953 C-47.76693359 28.08251953 -48.42693359 28.08251953 -49.10693359 28.08251953 C-49.28869141 28.79537109 -49.47044922 29.50822266 -49.65771484 30.24267578 C-51.50450526 37.27942079 -53.74542191 43.61807399 -57.10693359 50.08251953 C-58.42693359 49.75251953 -59.74693359 49.42251953 -61.10693359 49.08251953 C-61.10693359 48.42251953 -61.10693359 47.76251953 -61.10693359 47.08251953 C-60.44693359 47.08251953 -59.78693359 47.08251953 -59.10693359 47.08251953 C-59.28869141 46.08220703 -59.47044922 45.08189453 -59.65771484 44.05126953 C-60.11880115 39.97767221 -59.87577449 36.63099429 -59.29443359 32.58251953 C-59.12298828 31.33470703 -58.95154297 30.08689453 -58.77490234 28.80126953 C-58.11093039 25.10477071 -57.20229842 21.66903052 -56.10693359 18.08251953 C-55.11693359 18.08251953 -54.12693359 18.08251953 -53.10693359 18.08251953 C-51.76963374 16.50556052 -51.76963374 16.50556052 -50.54443359 14.45751953 C-44.72412923 6.4563712 -37.05153006 3.52789055 -27.53491211 1.91992188 C-18.38170787 0.56396972 -9.23665086 0.24532359 0 0 Z " fill="#E8CCF7" transform="translate(283.10693359375,180.91748046875)"/>
<path d="M0 0 C8.25 0 16.5 0 25 0 C25 0.66 25 1.32 25 2 C24.01 2 23.02 2 22 2 C22 5.96 22 9.92 22 14 C22.66 14 23.32 14 24 14 C23.67 14.99 23.34 15.98 23 17 C22.85846154 20.89230774 22.96307938 24.25556444 24 28 C36.43110307 28.55145054 48.86926951 29.08956396 61.3125 29.25 C62.12235352 29.27126953 62.93220703 29.29253906 63.76660156 29.31445312 C68.36385685 29.34196983 71.36369993 28.89778652 75 26 C75.33 25.34 75.66 24.68 76 24 C76.66 24 77.32 24 78 24 C78 22.35 78 20.7 78 19 C77.34 19 76.68 19 76 19 C76 18.01 76 17.02 76 16 C77.32 16 78.64 16 80 16 C80 12.37 80 8.74 80 5 C83.55713375 6.77856688 85.43740202 8.140381 88.1875 10.875 C88.88230469 11.55304688 89.57710937 12.23109375 90.29296875 12.9296875 C92.09809838 15.11897516 92.89776808 16.16979007 93 19 C87.34325698 31.41394458 68.19852541 38.17521111 56.125 42.75 C53.76061505 43.53282106 51.38479395 44.28175016 49 45 C48.36497559 45.19609863 47.72995117 45.39219727 47.07568359 45.59423828 C20.18050192 53.6188314 -9.79011003 49.81457013 -34.6484375 37.2109375 C-37.13771734 35.86071116 -39.58653216 34.48062184 -42 33 C-42 32.67 -42 32.34 -42 32 C-26.59204368 29.94948387 -11.5492079 28.52615281 4 29 C4.33 25.04 4.66 21.08 5 17 C4.01 16.67 3.02 16.34 2 16 C2 15.34 2 14.68 2 14 C2.99 14 3.98 14 5 14 C5 10.04 5 6.08 5 2 C3.35 2 1.7 2 0 2 C0 1.34 0 0.68 0 0 Z " fill="#670F9A" transform="translate(262,336)"/>
<path d="M0 0 C-4.30769231 4.92307692 -4.30769231 4.92307692 -7.8125 5.3125 C-8.534375 5.209375 -9.25625 5.10625 -10 5 C-9.236875 5.70125 -8.47375 6.4025 -7.6875 7.125 C-2.36226234 12.82176586 -1.10814515 18.55338725 -0.6875 26.125 C-1 30 -1 30 -2.5 32.375 C-10.2630442 37.42097873 -21.18720118 37.18964594 -30.1875 37.25 C-30.96802734 37.270625 -31.74855469 37.29125 -32.55273438 37.3125 C-37.2311186 37.34424476 -40.16899456 36.9724562 -44 34 C-46 32 -46 32 -46.25 28.375 C-46.02857559 20.70817996 -43.59088864 14.70299212 -40 8 C-42.64 7.67 -45.28 7.34 -48 7 C-48 6.67 -48 6.34 -48 6 C-42.5920668 5.13742242 -37.18285629 4.28351824 -31.77246094 3.43652344 C-29.0479065 3.00754287 -26.32476029 2.57030985 -23.6015625 2.1328125 C-21.85943686 1.85898115 -20.1172511 1.58553196 -18.375 1.3125 C-17.5715918 1.18125732 -16.76818359 1.05001465 -15.94042969 0.91479492 C-10.56756266 0.08412873 -5.43734017 -0.11395623 0 0 Z " fill="#2C0C3F" transform="translate(301,272)"/>
<path d="M0 0 C0.99 1.32 1.98 2.64 3 4 C3.54140625 4.52078125 4.0828125 5.0415625 4.640625 5.578125 C7.82265597 8.88372999 9.18286501 11.48613354 9.1640625 16.078125 C8.97037616 20.07801442 8.52973618 24.03179443 8 28 C8.66 28 9.32 28 10 28 C10.33 22.39 10.66 16.78 11 11 C16 15 16 15 17.3125 16.625 C20.13636083 18.92592364 23.47476849 19.24872115 27 20 C25.92851916 22.15292894 24.84618418 24.29900645 23.74609375 26.4375 C23.31425781 27.283125 22.88242188 28.12875 22.4375 29 C22.00308594 29.845625 21.56867188 30.69125 21.12109375 31.5625 C19.93046558 33.90997546 19.93046558 33.90997546 19.53515625 36.25 C19.35855469 36.8275 19.18195313 37.405 19 38 C17.515 38.495 17.515 38.495 16 39 C15.08960875 41.28697319 14.54158001 43.58315365 13.94140625 45.96875 C13.63074219 46.6390625 13.32007813 47.309375 13 48 C10.96484375 48.65625 10.96484375 48.65625 9 49 C8.67 49.66 8.34 50.32 8 51 C7.236875 50.21625 6.47375 49.4325 5.6875 48.625 C2.27223953 45.2891642 0.26725657 43.94362861 -4.375 43.5 C-7.30824706 42.86837094 -8.65900741 42.37313213 -10.69921875 40.140625 C-14.68766246 33.14656325 -15.03055019 25.87225842 -14 18 C-13.03889415 14.88663052 -12.15535742 13.56312775 -10 11 C-7.25 9.5625 -7.25 9.5625 -5 9 C-4.01 10.485 -4.01 10.485 -3 12 C-2.01 8.04 -1.02 4.08 0 0 Z " fill="#8C1CCF" transform="translate(219,258)"/>
<path d="M0 0 C0.72703125 0.59039062 1.4540625 1.18078125 2.203125 1.7890625 C2.99203125 2.40007812 3.7809375 3.01109375 4.59375 3.640625 C9.9555327 8.04628561 9.9555327 8.04628561 11.203125 11.7890625 C10.584375 11.5828125 9.965625 11.3765625 9.328125 11.1640625 C8.626875 11.0403125 7.925625 10.9165625 7.203125 10.7890625 C6.543125 11.4490625 5.883125 12.1090625 5.203125 12.7890625 C-0.25142045 12.33451705 -0.25142045 12.33451705 -2.796875 9.7890625 C-7.22391416 9.03367959 -11.37638436 8.99011532 -15.796875 9.7890625 C-19.4817154 12.45134456 -21.7799071 15.75512669 -23.796875 19.7890625 C-23.89521436 22.25911587 -23.93590581 24.69463911 -23.921875 27.1640625 C-23.92574219 27.83695313 -23.92960937 28.50984375 -23.93359375 29.203125 C-23.92702141 32.54187195 -23.82796503 35.59759335 -22.796875 38.7890625 C-23.456875 38.7890625 -24.116875 38.7890625 -24.796875 38.7890625 C-25.23 40.490625 -25.23 40.490625 -25.671875 42.2265625 C-26.043125 43.4021875 -26.414375 44.5778125 -26.796875 45.7890625 C-27.786875 46.2840625 -27.786875 46.2840625 -28.796875 46.7890625 C-28.796875 45.4690625 -28.796875 44.1490625 -28.796875 42.7890625 C-29.456875 42.7890625 -30.116875 42.7890625 -30.796875 42.7890625 C-30.82265625 42.07621094 -30.8484375 41.36335938 -30.875 40.62890625 C-31.25262631 34.25217114 -31.77173613 29.84628825 -35.796875 24.7890625 C-40.91198719 20.84415287 -46.26417034 20.28816886 -52.57421875 20.0625 C-53.30769531 19.97226563 -54.04117188 19.88203125 -54.796875 19.7890625 C-55.126875 19.1290625 -55.456875 18.4690625 -55.796875 17.7890625 C-49.96211629 11.58963138 -43.80776853 6.79314757 -35.796875 3.7890625 C-35.796875 1.4790625 -35.796875 -0.8309375 -35.796875 -3.2109375 C-24.48279968 -5.69116621 -9.8741595 -6.72079889 0 0 Z " fill="#2B0D3D" transform="translate(306.796875,195.2109375)"/>
<path d="M0 0 C4.49945691 2.57365385 7.14976374 5.56493803 8.8125 10.5 C9.82518928 17.13272824 10.20499934 23.46446003 6.1875 29.125 C4.50390625 30.9453125 4.50390625 30.9453125 2.8125 32.5 C1.925625 33.325 1.03875 34.15 0.125 35 C-4.66141621 37.16743376 -9.02160591 37.42276276 -14.1875 36.5 C-17.1875 34.25 -17.1875 34.25 -19.1875 31.5 C-19.744375 30.819375 -20.30125 30.13875 -20.875 29.4375 C-24.81374377 23.62316396 -24.90565623 18.41557854 -24.1875 11.5 C-22.58450556 6.12780242 -19.95172406 2.55398978 -15.1875 -0.5 C-9.87825405 -2.26974865 -5.1133605 -2.19835764 0 0 Z " fill="#F2EFF4" transform="translate(267.1875,216.5)"/>
<path d="M0 0 C0.625 1.8125 0.625 1.8125 1 4 C0.34 4.99 -0.32 5.98 -1 7 C-0.01 7 0.98 7 2 7 C7.3319821 12.72212713 9.38056411 16.6447553 9.18359375 24.53515625 C8.84849955 29.03397411 7.82362556 31.93725734 5.0625 35.5 C0.73623078 39.03164834 -4.03534087 41.47697651 -9 44 C-9.70511719 44.39574219 -10.41023438 44.79148437 -11.13671875 45.19921875 C-13.92049532 46.39560072 -16.11873708 45.65483248 -19 45 C-19.33 42.03 -19.66 39.06 -20 36 C-20.77601563 35.93296875 -21.55203125 35.8659375 -22.3515625 35.796875 C-25 35 -25 35 -26.3359375 32.890625 C-26.67882812 32.01921875 -27.02171875 31.1478125 -27.375 30.25 C-29.72518296 25.00901692 -32.09081685 22.88775479 -37 20 C-36.67 19.34 -36.34 18.68 -36 18 C-31.31604754 16.85757257 -26.78644729 16.91747505 -22 17 C-21.896875 16.4225 -21.79375 15.845 -21.6875 15.25 C-20.89103535 12.64338842 -19.80934723 11.0264689 -18 9 C-17.34 9 -16.68 9 -16 9 C-15.505 17.415 -15.505 17.415 -15 26 C-14.34 26 -13.68 26 -13 26 C-13.0928125 25.20335937 -13.185625 24.40671875 -13.28125 23.5859375 C-13.86408641 15.03073164 -13.86408641 15.03073164 -11.359375 12.04296875 C-9.95432824 11.05683408 -8.51376703 10.11945715 -7.04296875 9.234375 C-3.30428715 6.97543927 -1.35614661 4.06843982 0 0 Z " fill="#9D20E6" transform="translate(342,253)"/>
<path d="M0 0 C5.26006997 2.62108929 7.75388978 6.67277028 10 12 C11.03746571 18.86014147 11.10274196 25.23769595 7.25 31.1875 C4.440372 34.89819556 1.90933816 37.68089056 -2.8046875 38.46875 C-12.1199208 38.56356153 -12.1199208 38.56356153 -15.5 35.9375 C-21.73342863 28.61322136 -22.45216798 24.27898567 -22.53125 14.62109375 C-21.91759529 10.43831498 -20.55583521 8.32019714 -18 5 C-17.360625 4.05125 -16.72125 3.1025 -16.0625 2.125 C-11.06334135 -1.34380396 -5.87131567 -1.01952649 0 0 Z " fill="#F2EDF3" transform="translate(304,204)"/>
<path d="M0 0 C0.66 1.32 1.32 2.64 2 4 C1.45472656 4.65484375 0.90945312 5.3096875 0.34765625 5.984375 C-1.69137896 8.45213043 -3.71532112 10.9311195 -5.72558594 13.42236328 C-6.91853321 14.89914973 -8.11914872 16.36973253 -9.3203125 17.83984375 C-17.81970654 28.63437033 -23.9042328 40.89354495 -28 54 C-28.27457031 54.86625 -28.54914063 55.7325 -28.83203125 56.625 C-32.65699834 69.58843527 -33.2864873 82.47764818 -33.125 95.875 C-33.11493329 97.3528584 -33.10581407 98.83072358 -33.09765625 100.30859375 C-33.07597371 103.87254028 -33.04165536 107.43622415 -33 111 C-35.475 111.495 -35.475 111.495 -38 112 C-40.13810069 105.72823797 -40.64799451 99.59591248 -41 93 C-41.05414063 92.18144531 -41.10828125 91.36289062 -41.1640625 90.51953125 C-42.32929289 57.20453522 -27.65755071 27.31663609 -6 3 C-5.18982422 2.07380859 -5.18982422 2.07380859 -4.36328125 1.12890625 C-3 0 -3 0 0 0 Z " fill="#EDCFFC" transform="translate(195,184)"/>
<path d="M0 0 C5.34920258 0.39140507 8.22077246 5.2332192 11.48828125 8.99609375 C23.66083602 23.55393919 32.04282946 40.73450445 37 59 C37.33902344 60.23234375 37.67804688 61.4646875 38.02734375 62.734375 C40.02171266 71.44710184 40.27043979 79.96364349 40.3125 88.875 C40.31813965 90.01638428 40.3237793 91.15776855 40.32958984 92.33374023 C40.27121686 99.11341628 39.62736065 105.41417297 38 112 C36.35 111.67 34.7 111.34 33 111 C31.93237298 107.41751823 32.27814241 104.61498268 32.73046875 100.91796875 C35.51990233 70.71931827 26.84412909 40.56530155 8.22265625 16.65625 C5.39869941 13.28139825 2.42951455 10.06663541 -0.6640625 6.9375 C-2 5 -2 5 -1.7734375 2.8125 C-1 1 -1 1 0 0 Z " fill="#ECCDFD" transform="translate(364,184)"/>
<path d="M0 0 C4.1493871 1.38312903 4.49102807 3.35257688 6.5 7.1875 C10.84503559 15.15408565 16.12954711 22.10164679 22 29 C22.62132812 29.73734375 23.24265625 30.4746875 23.8828125 31.234375 C40.04133997 48.769638 63.84631255 60.42067534 87.0859375 64.45703125 C90 65 90 65 92 66 C92 67.65 92 69.3 92 71 C80.13159269 74.95613577 59.78329985 64.03625583 49.17138672 58.75244141 C41.32424758 54.67799925 34.57287964 49.95182015 28 44 C27.15050781 43.26910156 26.30101562 42.53820312 25.42578125 41.78515625 C17.00633172 34.44875996 9.85826252 26.56884921 3.625 17.3125 C3.20798828 16.69487793 2.79097656 16.07725586 2.36132812 15.44091797 C-0.26161411 11.43697311 -2.22997307 7.44790639 -4 3 C-2.1875 1.4375 -2.1875 1.4375 0 0 Z " fill="#F1CFFC" transform="translate(171,325)"/>
<path d="M0 0 C1.65 0.66 3.3 1.32 5 2 C4.4335953 6.65513862 2.40694955 10.19430217 0 14.125 C-0.40081787 14.78371094 -0.80163574 15.44242187 -1.21459961 16.12109375 C-6.40529666 24.47324053 -12.32324201 32.00664352 -19.94140625 38.2734375 C-22.0523431 39.99999346 -22.0523431 39.99999346 -24.08984375 42.0390625 C-40.67676552 58.08726373 -65.8629606 70.14903685 -89 72 C-89.66 70.35 -90.32 68.7 -91 67 C-87.49150386 64.66100257 -84.17236359 64.04149017 -80.125 63.1875 C-60.77681607 58.79946251 -44.31378868 49.47708108 -29 37 C-28.14019531 36.30519531 -27.28039062 35.61039062 -26.39453125 34.89453125 C-14.97932195 25.17832984 -7.36996529 12.87073649 0 0 Z " fill="#F1CFFC" transform="translate(386,325)"/>
<path d="M0 0 C0 1.32 0 2.64 0 4 C-6.55396494 5.64348156 -12.69500533 6.35757614 -19.4375 6.5625 C-21.20717119 6.62229479 -22.97671891 6.68590465 -24.74609375 6.75390625 C-25.51622803 6.77783447 -26.2863623 6.8017627 -27.07983398 6.82641602 C-29.08375577 6.88984911 -29.08375577 6.88984911 -31 8 C-32.99960012 8.039992 -35.00047242 8.04346799 -37 8 C-37 8.66 -37 9.32 -37 10 C-37.72445312 10.17015625 -38.44890625 10.3403125 -39.1953125 10.515625 C-47.4480088 12.58430087 -53.36314279 15.39682441 -59 22 C-59.87238858 24.67790896 -59.87238858 24.67790896 -60 27 C-60.66 27 -61.32 27 -62 27 C-62.18175781 27.71285156 -62.36351562 28.42570312 -62.55078125 29.16015625 C-64.39757166 36.19690126 -66.63848832 42.53555446 -70 49 C-71.32 48.67 -72.64 48.34 -74 48 C-74 47.34 -74 46.68 -74 46 C-73.34 46 -72.68 46 -72 46 C-72.18175781 44.9996875 -72.36351562 43.999375 -72.55078125 42.96875 C-73.01186756 38.89515268 -72.7688409 35.54847475 -72.1875 31.5 C-72.01605469 30.2521875 -71.84460938 29.004375 -71.66796875 27.71875 C-71.0039968 24.02225118 -70.09536482 20.58651098 -69 17 C-68.01 17 -67.02 17 -66 17 C-64.66270015 15.42304099 -64.66270015 15.42304099 -63.4375 13.375 C-59.29083989 7.52394826 -53.08013134 3.39658021 -46 2 C-43.35854743 1.78199866 -40.73149034 1.6036477 -38.0859375 1.46484375 C-37.31625641 1.42186661 -36.54657532 1.37888947 -35.75357056 1.33460999 C-34.12471561 1.24456196 -32.49575399 1.15642595 -30.86669922 1.07006836 C-28.40432108 0.93906 -25.94240901 0.80107793 -23.48046875 0.66210938 C-15.64438881 0.22982125 -7.85129489 -0.11944161 0 0 Z " fill="#FAF4FC" transform="translate(296,182)"/>
<path d="M0 0 C37.45176103 -0.20638953 37.45176103 -0.20638953 56 1 C57.26237731 3.52475462 57.09856404 5.31200466 57.0625 8.125 C57.05347656 9.03507812 57.04445313 9.94515625 57.03515625 10.8828125 C57.02355469 11.58148438 57.01195312 12.28015625 57 13 C44.86775179 13.11040469 32.75213803 13.01651978 20.625 12.625 C19.49151123 12.59414307 18.35802246 12.56328613 17.19018555 12.53149414 C11.16515329 12.31552868 5.78138904 11.73019672 0 10 C0 6.7 0 3.4 0 0 Z " fill="#B55FD4" transform="translate(285,339)"/>
<path d="M0 0 C0 0.33 0 0.66 0 1 C-1.25296875 1.06058594 -2.5059375 1.12117187 -3.796875 1.18359375 C-5.44792724 1.26802256 -7.09896835 1.35266939 -8.75 1.4375 C-9.575 1.47681641 -10.4 1.51613281 -11.25 1.55664062 C-12.04921875 1.59853516 -12.8484375 1.64042969 -13.671875 1.68359375 C-14.4050293 1.72025146 -15.13818359 1.75690918 -15.89355469 1.79467773 C-18.01177605 2.00114785 -19.9519456 2.43132086 -22 3 C-21.9175 3.928125 -21.835 4.85625 -21.75 5.8125 C-22 9 -22 9 -23.5625 10.6875 C-26 12 -26 12 -29.25 13.3125 C-33.64342467 15.10981009 -37.53668583 17.75631063 -41 21 C-41.33 21.99 -41.66 22.98 -42 24 C-41.01 24.66 -40.02 25.32 -39 26 C-40.65 26.66 -42.3 27.32 -44 28 C-44.33 27.34 -44.66 26.68 -45 26 C-45.66 26.33 -46.32 26.66 -47 27 C-48.99960012 27.039992 -51.00047242 27.04346799 -53 27 C-53 29.97 -53 32.94 -53 36 C-56.3 36 -59.6 36 -63 36 C-62.25 27.25 -62.25 27.25 -60 25 C-59.4121875 23.453125 -59.4121875 23.453125 -58.8125 21.875 C-55.13937713 13.12860345 -48.15147961 8.28737789 -40 4 C-39.36191406 3.6390625 -38.72382813 3.278125 -38.06640625 2.90625 C-26.82334927 -2.02454248 -11.97156678 -0.21139686 0 0 Z " fill="#4C2164" transform="translate(294,190)"/>
<path d="M0 0 C7.83733423 1.54177067 13.24670446 4.41442852 18 11 C18 11.99 18 12.98 18 14 C0.97000106 14.13580541 -15.98939479 13.82957037 -33 13 C-33 13.66 -33 14.32 -33 15 C-37.29 15 -41.58 15 -46 15 C-46 14.67 -46 14.34 -46 14 C-42.37 14 -38.74 14 -35 14 C-34.9071875 12.4221875 -34.9071875 12.4221875 -34.8125 10.8125 C-33.83433202 6.22263485 -32.62594164 4.90353655 -29 2 C-25.86206055 1.43237305 -25.86206055 1.43237305 -22.38671875 1.51171875 C-21.13955078 1.52783203 -19.89238281 1.54394531 -18.60742188 1.56054688 C-17.31384766 1.60244141 -16.02027344 1.64433594 -14.6875 1.6875 C-13.37458984 1.71005859 -12.06167969 1.73261719 -10.70898438 1.75585938 C-7.4714987 1.81472275 -4.23633 1.89691196 -1 2 C-0.67 1.34 -0.34 0.68 0 0 Z " fill="#AB60D1" transform="translate(320,321)"/>
<path d="M0 0 C0.96679688 0.00902344 1.93359375 0.01804687 2.9296875 0.02734375 C3.65414062 0.03894531 4.37859375 0.05054688 5.125 0.0625 C5.25 7.6875 5.25 7.6875 4.125 11.0625 C2.99449219 11.09988281 1.86398437 11.13726562 0.69921875 11.17578125 C-0.92977467 11.24001357 -2.55867474 11.30663605 -4.1875 11.375 C-5.49980591 11.42841553 -5.49980591 11.42841553 -6.83862305 11.48291016 C-12.25863153 11.74872116 -17.59023621 12.24577107 -22.96875 12.97265625 C-24.16588623 13.13016357 -25.36302246 13.2876709 -26.59643555 13.44995117 C-28.95813783 13.77059292 -31.31673574 14.11516727 -33.67114258 14.4855957 C-39.77049827 15.30216507 -43.76235046 15.58240456 -48.78979492 11.78173828 C-50.3966114 9.23613611 -50.05140324 6.99848121 -49.875 4.0625 C-48.75528809 3.97685791 -47.63557617 3.89121582 -46.48193359 3.80297852 C-42.31082525 3.48323755 -38.13999511 3.15998465 -33.96923828 2.83569336 C-32.16722848 2.69606915 -30.36514553 2.55738573 -28.56298828 2.41967773 C-25.96627109 2.22108837 -23.36983952 2.0190696 -20.7734375 1.81640625 C-19.57308365 1.72571617 -19.57308365 1.72571617 -18.34848022 1.63319397 C-12.18793829 1.14715749 -6.18738891 -0.07545596 0 0 Z " fill="#BF66D5" transform="translate(261.875,353.9375)"/>
<path d="M0 0 C18.02751241 -0.13954845 35.98999855 0.19355001 54 1 C53.81799227 5.00417015 53.45931282 6.56992915 50.484375 9.35546875 C46.1365585 11.40752116 42.98117058 11.48797512 38.25 11.3125 C37.40397217 11.29630615 36.55794434 11.2801123 35.6862793 11.26342773 C32.78973305 11.19924482 29.89550387 11.1005542 27 11 C24.64713817 10.9321961 22.29427347 10.86449163 19.94140625 10.796875 C17.56503207 10.72097473 15.18872704 10.64287527 12.8125 10.5625 C11.65975586 10.52358643 10.50701172 10.48467285 9.31933594 10.44458008 C7.71687012 10.38113403 7.71687012 10.38113403 6.08203125 10.31640625 C4.64694214 10.26141968 4.64694214 10.26141968 3.18286133 10.20532227 C1 10 1 10 0 9 C-0.07179964 7.48071962 -0.08392007 5.95832518 -0.0625 4.4375 C-0.05347656 3.61121094 -0.04445313 2.78492188 -0.03515625 1.93359375 C-0.02355469 1.29550781 -0.01195312 0.65742188 0 0 Z " fill="#BE65D6" transform="translate(285,355)"/>
<path d="M0 0 C-4.30769231 4.92307692 -4.30769231 4.92307692 -7.8125 5.3125 C-8.534375 5.209375 -9.25625 5.10625 -10 5 C-9.505 6.485 -9.505 6.485 -9 8 C-10.65 8.33 -12.3 8.66 -14 9 C-14 9.99 -14 10.98 -14 12 C-15.010625 12.433125 -16.02125 12.86625 -17.0625 13.3125 C-17.70574219 13.58964844 -18.34898437 13.86679687 -19.01171875 14.15234375 C-20.79189208 14.91127815 -22.58282619 15.64485512 -24.375 16.375 C-32.26691553 19.42222333 -32.26691553 19.42222333 -38 25 C-39.65 25 -41.3 25 -43 25 C-43.66 27.31 -44.32 29.62 -45 32 C-45.33 32 -45.66 32 -46 32 C-46.33062884 22.74239256 -44.36301133 16.14428781 -40 8 C-42.64 7.67 -45.28 7.34 -48 7 C-48 6.67 -48 6.34 -48 6 C-42.5920668 5.13742242 -37.18285629 4.28351824 -31.77246094 3.43652344 C-29.0479065 3.00754287 -26.32476029 2.57030985 -23.6015625 2.1328125 C-21.85943686 1.85898115 -20.1172511 1.58553196 -18.375 1.3125 C-17.5715918 1.18125732 -16.76818359 1.05001465 -15.94042969 0.91479492 C-10.56756266 0.08412873 -5.43734017 -0.11395623 0 0 Z " fill="#5C0C8A" transform="translate(301,272)"/>
<path d="M0 0 C4.99503071 0.4913145 6.31841769 1.88091769 9.8125 5.375 C11.77516524 9.30033048 11.15390779 14.08567672 10.8125 18.375 C9.49408472 21.70573334 8.28772322 22.97898065 5.5625 25.25 C1.77551745 26.79922013 -0.28301105 26.56029129 -4.1875 25.375 C-7.94749443 22.49500427 -8.94648448 20.93670217 -9.66796875 16.26171875 C-10.02120597 7.83176025 -10.02120597 7.83176025 -8.08984375 4.45703125 C-6.75 3.125 -6.75 3.125 -4.1875 1.375 C-3.1875 0.375 -3.1875 0.375 0 0 Z " fill="#2A0C3B" transform="translate(262.1875,220.625)"/>
<path d="M0 0 C2.81937723 0.62817703 5.09876427 1.57502388 7.19140625 3.609375 C9.53983587 7.8897203 8.98444562 12.82248117 8.2265625 17.49609375 C6.93065729 20.68786028 5.38664072 22.91605464 2.2265625 24.49609375 C-4.76176092 25.2980325 -4.76176092 25.2980325 -7.375 23.2265625 C-11.36372051 18.43310014 -12.20227028 15.12287737 -12.10546875 9.05078125 C-11.20829418 2.14781454 -6.70032186 -0.54902303 0 0 Z " fill="#2B0D3C" transform="translate(302.7734375,210.50390625)"/>
<path d="M0 0 C0.99 1.32 1.98 2.64 3 4 C3.5254541 4.56138672 4.0509082 5.12277344 4.59228516 5.70117188 C9.84368459 11.60675309 9.73145071 16.85915922 9.375 24.5 C9.34792969 25.60859375 9.32085937 26.7171875 9.29296875 27.859375 C9.2227377 30.57497563 9.1244462 33.28643455 9 36 C8.01 36 7.02 36 6 36 C6 36.66 6 37.32 6 38 C3.69 38 1.38 38 -1 38 C-1 37.34 -1 36.68 -1 36 C-2.32 35.67 -3.64 35.34 -5 35 C-4.67 33.35 -4.34 31.7 -4 30 C-3.34 30 -2.68 30 -2 30 C-2.33 28.02 -2.66 26.04 -3 24 C-3.66 24 -4.32 24 -5 24 C-5 19.71 -5 15.42 -5 11 C-4.01 11.495 -4.01 11.495 -3 12 C-2.01 8.04 -1.02 4.08 0 0 Z " fill="#8A4DC2" transform="translate(219,258)"/>
<path d="M0 0 C0.625 1.8125 0.625 1.8125 1 4 C0.01 5.485 0.01 5.485 -1 7 C-0.01 7 0.98 7 2 7 C6.42398376 11.74768989 9.28994333 15.43449249 9.25 22.125 C9.25515625 22.99382812 9.2603125 23.86265625 9.265625 24.7578125 C9 27 9 27 7 29 C6.690625 28.0409375 6.690625 28.0409375 6.375 27.0625 C5.10461791 24.65074923 5.10461791 24.65074923 1.875 24.25 C0.92625 24.1675 -0.0225 24.085 -1 24 C-1.33 24.66 -1.66 25.32 -2 26 C-5.63 26 -9.26 26 -13 26 C-13.47759886 21.90060976 -13.68998139 18.08238987 -13 14 C-11.19662002 11.8488253 -9.43925085 10.67638547 -7.04296875 9.234375 C-3.30428715 6.97543927 -1.35614661 4.06843982 0 0 Z " fill="#8A4FC8" transform="translate(342,253)"/>
<path d="M0 0 C0.99 0.33 1.98 0.66 3 1 C3 2.65 3 4.3 3 6 C7.26853472 5.59254199 11.53691873 5.18354744 15.80517578 4.77319336 C17.25402955 4.63410984 18.70292211 4.49542971 20.15185547 4.35717773 C22.24717683 4.15717635 24.3423794 3.9559995 26.4375 3.75390625 C27.11512894 3.68855179 27.79275787 3.62319733 28.49092102 3.55586243 C31.82894031 3.22915981 35.1566681 2.8705738 38.48046875 2.421875 C42.44011352 1.94724499 46.32822423 1.7439345 50.3125 1.6875 C51.01439453 1.65849609 51.71628906 1.62949219 52.43945312 1.59960938 C54.48828125 1.57421875 54.48828125 1.57421875 58 2 C59.71948242 4.02661133 59.71948242 4.02661133 61 6 C24.07163377 10.30803921 24.07163377 10.30803921 6 10 C6 11.65 6 13.3 6 15 C2.61391263 13.5488197 0.18826341 11.99873134 -2 9 C-1.82594075 5.63485445 -1.51178502 3.02357005 0 0 Z " fill="#9E25E6" transform="translate(206,348)"/>
<path d="M0 0 C2.64 0 5.28 0 8 0 C6.99850828 3.9058177 5.54751938 6.7341832 3.1875 9.9375 C-0.45797113 15.13517903 -1.990567 20.60548306 -3.7265625 26.64453125 C-5.0194986 30.0513782 -6.23836146 31.68698207 -9 34 C-9.66 31.03 -10.32 28.06 -11 25 C-12.32 24.67 -13.64 24.34 -15 24 C-14.67 21.36 -14.34 18.72 -14 16 C-12.68 15.67 -11.36 15.34 -10 15 C-9.67 12.69 -9.34 10.38 -9 8 C-8.01 7.67 -7.02 7.34 -6 7 C-4.66172696 5.33729713 -3.32810215 3.67083819 -2 2 C-1.34 2 -0.68 2 0 2 C0 1.34 0 0.68 0 0 Z " fill="#FDF8FE" transform="translate(248,281)"/>
<path d="M0 0 C0 4.95 0 9.9 0 15 C0.66 15 1.32 15 2 15 C2.33 16.98 2.66 18.96 3 21 C2.34 21.33 1.68 21.66 1 22 C0.34786708 24.02463255 0.34786708 24.02463255 0 26 C1.32 26.33 2.64 26.66 4 27 C4 28.98 4 30.96 4 33 C0.02763121 32.43251874 -2.7943528 31.44641497 -6 29 C-9.91415877 22.5298484 -9.78687182 16.36409392 -9 9 C-7.58127624 4.7368742 -5.05172524 0 0 0 Z " fill="#9E20E6" transform="translate(214,267)"/>
<path d="M0 0 C-0.35292938 2.67300613 -0.73393372 3.76697463 -2.79296875 5.5703125 C-3.97826172 6.33988281 -3.97826172 6.33988281 -5.1875 7.125 C-8.38516193 9.23988015 -11.53598502 11.37456311 -14.6015625 13.67578125 C-15.52352417 14.36099854 -15.52352417 14.36099854 -16.46411133 15.06005859 C-17.67841498 15.96497224 -18.88682685 16.87785672 -20.08862305 17.79931641 C-22.71271961 19.72931641 -24.58841913 20.94988961 -27.85546875 21.34765625 C-30 21 -30 21 -31 20 C-31.375 17.6875 -31.375 17.6875 -31 15 C-28.625 12.9375 -28.625 12.9375 -26 11 C-25.71125 10.319375 -25.4225 9.63875 -25.125 8.9375 C-23.31368355 5.81801056 -20.26162212 5.29340187 -17 4 C-16.29875 3.46375 -15.5975 2.9275 -14.875 2.375 C-10.55004407 -0.79663435 -5.12365796 -0.08684166 0 0 Z " fill="#5B0C89" transform="translate(271,195)"/>
<path d="M0 0 C0.33 1.32 0.66 2.64 1 4 C5.1877923 3.6913407 9.37517174 3.37738709 13.5625 3.0625 C14.74392578 2.97548828 15.92535156 2.88847656 17.14257812 2.79882812 C23.9338601 2.28998421 23.9338601 2.28998421 30.6875 1.4375 C35.27976108 0.83097495 39.81170113 0.89420599 44.4375 0.9375 C45.35982422 0.94201172 46.28214844 0.94652344 47.23242188 0.95117188 C49.48835048 0.96286062 51.74413967 0.97924545 54 1 C54 1.66 54 2.32 54 3 C53.34 3 52.68 3 52 3 C52 3.66 52 4.32 52 5 C53.65 5 55.3 5 57 5 C57 7.64 57 10.28 57 13 C56.67 13 56.34 13 56 13 C56 10.69 56 8.38 56 6 C55.00371582 6.05534912 54.00743164 6.11069824 52.98095703 6.16772461 C52.31830841 6.20453842 51.65565979 6.24135223 50.97293091 6.27928162 C49.8764473 6.34019737 49.8764473 6.34019737 48.7578125 6.40234375 C40.79199219 6.84488932 32.82617188 7.2874349 24.86035156 7.72998047 C24.06745728 7.77403015 23.27456299 7.81807983 22.4576416 7.86346436 C21.64661987 7.90852112 20.83559814 7.95357788 20 8 C18.71385803 8.07145233 18.71385803 8.07145233 17.4017334 8.14434814 C16.53922974 8.19226501 15.67672607 8.24018188 14.78808594 8.28955078 C13.53389359 8.35922813 13.53389359 8.35922813 12.25436401 8.43031311 C11.44597076 8.47522385 10.63757751 8.52013458 9.8046875 8.56640625 C8.62798996 8.63177834 8.62798996 8.63177834 7.42752075 8.69847107 C4.71376038 8.84923553 4.71376038 8.84923553 2 9 C2 8.34 2 7.68 2 7 C0.68 6.67 -0.64 6.34 -2 6 C-1.34 4.02 -0.68 2.04 0 0 Z " fill="#A02BE2" transform="translate(210,333)"/>
<path d="M0 0 C-4.30769231 4.92307692 -4.30769231 4.92307692 -7.8125 5.3125 C-8.534375 5.209375 -9.25625 5.10625 -10 5 C-10 5.66 -10 6.32 -10 7 C-10.72590332 7.08564209 -11.45180664 7.17128418 -12.19970703 7.25952148 C-15.50831367 7.65071152 -18.81665718 8.04408534 -22.125 8.4375 C-23.83816406 8.63956055 -23.83816406 8.63956055 -25.5859375 8.84570312 C-26.69453125 8.97783203 -27.803125 9.10996094 -28.9453125 9.24609375 C-29.96125488 9.36654053 -30.97719727 9.4869873 -32.02392578 9.61108398 C-35.03034934 10.00396608 -38.01248074 10.48390313 -41 11 C-40.67 10.01 -40.34 9.02 -40 8 C-42.64 7.67 -45.28 7.34 -48 7 C-48 6.67 -48 6.34 -48 6 C-42.5920668 5.13742242 -37.18285629 4.28351824 -31.77246094 3.43652344 C-29.0479065 3.00754287 -26.32476029 2.57030985 -23.6015625 2.1328125 C-21.85943686 1.85898115 -20.1172511 1.58553196 -18.375 1.3125 C-17.5715918 1.18125732 -16.76818359 1.05001465 -15.94042969 0.91479492 C-10.56756266 0.08412873 -5.43734017 -0.11395623 0 0 Z " fill="#8756BD" transform="translate(301,272)"/>
<path d="M0 0 C0.66 0 1.32 0 2 0 C1.72285156 1.17175781 1.44570312 2.34351563 1.16015625 3.55078125 C-0.80465701 12.0175041 -2.61599544 20.28309638 -3 29 C-6.50411265 28.6814443 -8.5840105 28.30932553 -11.4375 26.1875 C-11.953125 25.465625 -12.46875 24.74375 -13 24 C-12.66015625 22.1171875 -12.66015625 22.1171875 -12 20 C-11.7834375 19.02353516 -11.7834375 19.02353516 -11.5625 18.02734375 C-9.60749896 10.76397184 -5.23296274 5.3124005 0 0 Z " fill="#6C47BA" transform="translate(220,222)"/>
<path d="M0 0 C0 2.83967231 -0.40267181 5.23735711 -1 8 C-1.66 8 -2.32 8 -3 8 C-3.165 8.87785156 -3.33 9.75570313 -3.5 10.66015625 C-5.60092561 15.33799843 -8.67681502 16.90934375 -13 19.4375 C-13.73734375 19.89576172 -14.4746875 20.35402344 -15.234375 20.82617188 C-19.24335719 23.25131347 -19.24335719 23.25131347 -21 24 C-21.66 23.67 -22.32 23.34 -23 23 C-26.31749961 22.14935907 -27.67803635 21.89267878 -31 23 C-31 22.34 -31 21.68 -31 21 C-28.44292974 19.39728653 -25.88418388 17.90349994 -23.25 16.4375 C-15.01723417 11.73848395 -6.74625028 6.74625028 0 0 Z " fill="#F1D0FD" transform="translate(359,360)"/>
<path d="M0 0 C0.66 0.33 1.32 0.66 2 1 C1.59352501 2.62589997 1.18704071 4.25179761 0.78051758 5.87768555 C0.42343116 7.30619553 0.06650046 8.73474445 -0.2902832 10.16333008 C-1.23028254 13.92620958 -2.17276427 17.6884293 -3.12109375 21.44921875 C-3.29995117 22.16013672 -3.47880859 22.87105469 -3.66308594 23.60351562 C-4.00522038 24.9631337 -4.34827644 26.32252029 -4.69238281 27.68164062 C-6.5769575 34.25690495 -6.5769575 34.25690495 -6.4375 40.9375 C-5.923952 44.53233601 -6.65267585 46.67131681 -8 50 C-11.375 49.375 -11.375 49.375 -15 48 C-16.4375 44.875 -16.4375 44.875 -17 42 C-15.515 41.505 -15.515 41.505 -14 41 C-13.67 40.34 -13.34 39.68 -13 39 C-12.34 39 -11.68 39 -11 39 C-10.67128906 37.58074219 -10.67128906 37.58074219 -10.3359375 36.1328125 C-8.30866991 27.60607484 -5.89718656 19.30998286 -3.01904297 11.02978516 C-1.75262992 7.36915016 -0.62822493 3.83747033 0 0 Z " fill="#6F53B8" transform="translate(231,169)"/>
<path d="M0 0 C0.66 0.33 1.32 0.66 2 1 C1.67 1.33 1.34 1.66 1 2 C0.95907063 4.33297433 0.95758277 6.66705225 1 9 C5.05606165 8.53199289 8.46588679 8.12046792 12 6 C12 6.66 12 7.32 12 8 C12.99 8.66 13.98 9.32 15 10 C13.35 10.66 11.7 11.32 10 12 C9.67 11.34 9.34 10.68 9 10 C8.01 10.495 8.01 10.495 7 11 C5.00039988 11.039992 2.99952758 11.04346799 1 11 C1 13.97 1 16.94 1 20 C-2.3 20 -5.6 20 -9 20 C-8.25 11.25 -8.25 11.25 -6 9 C-5.2884375 7.2675 -5.2884375 7.2675 -4.5625 5.5 C-3 2 -3 2 0 0 Z " fill="#350452" transform="translate(240,206)"/>
<path d="M0 0 C5.73578339 3.82385559 9.93616293 9.87232586 13 16 C13.1875 19.5 13.1875 19.5 13 23 C12.34 23.66 11.68 24.32 11 25 C11.33 25.66 11.66 26.32 12 27 C11.01 27 10.02 27 9 27 C9 29.31 9 31.62 9 34 C8.67 34 8.34 34 8 34 C8.00902344 33.43796875 8.01804687 32.8759375 8.02734375 32.296875 C7.74327654 24.24418719 5.22225754 17.29252575 2.43920898 9.81933594 C2.12798096 8.98176758 1.81675293 8.14419922 1.49609375 7.28125 C1.20919678 6.52908203 0.9222998 5.77691406 0.62670898 5.00195312 C0 3 0 3 0 0 Z " fill="#6B4AB7" transform="translate(336,214)"/>
<path d="M0 0 C0 0.33 0 0.66 0 1 C-1.65 1.33 -3.3 1.66 -5 2 C-5 2.99 -5 3.98 -5 5 C-5.66 5 -6.32 5 -7 5 C-7 4.34 -7 3.68 -7 3 C-8.45880109 3.14107747 -9.91703551 3.28802415 -11.375 3.4375 C-12.18710937 3.51871094 -12.99921875 3.59992188 -13.8359375 3.68359375 C-16.04272805 3.89090114 -16.04272805 3.89090114 -18 5 C-20.04055005 5.07065617 -22.08334257 5.08421976 -24.125 5.0625 C-25.22070312 5.05347656 -26.31640625 5.04445313 -27.4453125 5.03515625 C-28.28835938 5.02355469 -29.13140625 5.01195312 -30 5 C-30.33 8.3 -30.66 11.6 -31 15 C-30.01 15.33 -29.02 15.66 -28 16 C-28.33 16.66 -28.66 17.32 -29 18 C-30.65 18 -32.3 18 -34 18 C-34.66 20.31 -35.32 22.62 -36 25 C-36.33 25 -36.66 25 -37 25 C-37.27145614 17.39922814 -36.74018603 10.30985289 -32 4 C-29.36328125 2.890625 -29.36328125 2.890625 -26.3125 2.25 C-24.69794922 1.90775391 -24.69794922 1.90775391 -23.05078125 1.55859375 C-22.04402344 1.37425781 -21.03726562 1.18992187 -20 1 C-19.29230469 0.86722656 -18.58460938 0.73445313 -17.85546875 0.59765625 C-11.94871739 -0.31011817 -5.95876419 -0.08938146 0 0 Z " fill="#491466" transform="translate(292,279)"/>
<path d="M0 0 C-0.01160156 0.72445313 -0.02320313 1.44890625 -0.03515625 2.1953125 C-0.08231311 7.24783323 -0.07377564 12.03378767 1 17 C2.32 17.33 3.64 17.66 5 18 C4.67 19.32 4.34 20.64 4 22 C3.67 21.01 3.34 20.02 3 19 C2.22398437 18.93296875 1.44796875 18.8659375 0.6484375 18.796875 C-2 18 -2 18 -3.3359375 15.890625 C-3.67882812 15.01921875 -4.02171875 14.1478125 -4.375 13.25 C-6.72518296 8.00901692 -9.09081685 5.88775479 -14 3 C-13.67 2.34 -13.34 1.68 -13 1 C-8.65012229 -0.03568517 -4.45537928 -0.08910759 0 0 Z " fill="#9154C5" transform="translate(319,270)"/>
<path d="M0 0 C4.20515219 1.45053343 6.163293 2.78998654 8.27734375 6.85546875 C9.60457402 10.79411426 9.64274831 14.91182179 9 19 C8.34 19.66 7.68 20.32 7 21 C6.6596875 20.1028125 6.6596875 20.1028125 6.3125 19.1875 C5.14358441 16.77513543 5.14358441 16.77513543 2.4375 15.8125 C1.633125 15.214375 0.82875 14.61625 0 14 C-0.48828125 10.64453125 -0.48828125 10.64453125 -0.3125 6.8125 C-0.24482422 4.90404297 -0.24482422 4.90404297 -0.17578125 2.95703125 C-0.11777344 1.98121094 -0.05976563 1.00539063 0 0 Z " fill="#F3E3FA" transform="translate(342,261)"/>
<path d="M0 0 C1.30582031 -0.02835937 2.61164063 -0.05671875 3.95703125 -0.0859375 C7.1875 0.375 7.1875 0.375 9.13671875 2.3984375 C9.48347656 3.05070312 9.83023438 3.70296875 10.1875 4.375 C1.15051675 5.5491788 -7.67911545 6.66494872 -16.8125 6.375 C-15.4925 6.045 -14.1725 5.715 -12.8125 5.375 C-12.8125 4.715 -12.8125 4.055 -12.8125 3.375 C-16.7725 3.375 -20.7325 3.375 -24.8125 3.375 C-24.8125 3.045 -24.8125 2.715 -24.8125 2.375 C-16.56054965 1.14598612 -8.34974402 0.15448185 0 0 Z " fill="#A734E1" transform="translate(256.8125,349.625)"/>
<path d="M0 0 C2.475 0.99 2.475 0.99 5 2 C4.98726659 5.74998823 4.81166352 9.33128087 4 13 C-0.3599808 16.8149832 -5.48705024 16.33077699 -11 16 C-11.33 15.34 -11.66 14.68 -12 14 C-11.67 13.34 -11.34 12.68 -11 12 C-8.69 12 -6.38 12 -4 12 C-4 11.34 -4 10.68 -4 10 C-3.01 10 -2.02 10 -1 10 C-1.33 7.36 -1.66 4.72 -2 2 C-1.34 2 -0.68 2 0 2 C0 1.34 0 0.68 0 0 Z " fill="#A122E9" transform="translate(229,284)"/>
<path d="M0 0 C0.98871094 -0.01417969 1.97742188 -0.02835937 2.99609375 -0.04296875 C5.5625 0.1875 5.5625 0.1875 7.5625 2.1875 C7.8125 4.6875 7.8125 4.6875 7.5625 7.1875 C5.04232574 9.70767426 4.04750151 9.48480377 0.5625 9.5 C-0.324375 9.51675781 -1.21125 9.53351563 -2.125 9.55078125 C-3.2696875 9.37095703 -3.2696875 9.37095703 -4.4375 9.1875 C-6.58559171 5.96536243 -6.73136153 4.90974599 -6.4375 1.1875 C-4.69900372 -0.55099628 -2.3588363 0.01533704 0 0 Z " fill="#8913CD" transform="translate(334.4375,278.8125)"/>
<path d="M0 0 C0.76027167 12.48535025 0.76027167 12.48535025 -1.0078125 16.0078125 C-3.13171956 18.13171956 -5.16587082 19.05529027 -8 20 C-8.44418867 12.48580833 -8.63833132 7.13896792 -4 1 C-2 0 -2 0 0 0 Z " fill="#F9F0FB" transform="translate(213,268)"/>
<path d="M0 0 C0.9075 0.103125 1.815 0.20625 2.75 0.3125 C3.08 0.9725 3.41 1.6325 3.75 2.3125 C1.77 2.3125 -0.21 2.3125 -2.25 2.3125 C-4.4513866 6.11677492 -4.4513866 6.11677492 -5.25 10.3125 C-4.59 10.3125 -3.93 10.3125 -3.25 10.3125 C-3.58 9.3225 -3.91 8.3325 -4.25 7.3125 C-2.27 6.9825 -0.29 6.6525 1.75 6.3125 C1.193125 7.1375 0.63625 7.9625 0.0625 8.8125 C-0.47890625 9.63427734 -0.47890625 9.63427734 -1.03125 10.47265625 C-1.87090027 11.74020522 -2.72608044 12.9975576 -3.59375 14.24609375 C-6.57279435 18.68868024 -7.91543849 21.95951589 -8.25 27.3125 C-10.98946515 24.57303485 -10.54930796 22.94629385 -10.5625 19.125 C-10.44593269 12.07656362 -9.11799157 8.33993461 -5.4375 2.375 C-3.25 0.3125 -3.25 0.3125 0 0 Z " fill="#E3C2F9" transform="translate(217.25,216.6875)"/>
<path d="M0 0 C0.66 0.66 1.32 1.32 2 2 C1.64613327 7.88705552 0.20277079 13.21011401 -1.5625 18.8125 C-3.36769949 24.29741977 -3.36769949 24.29741977 -4 30 C-4.66 30 -5.32 30 -6 30 C-6.12375 31.093125 -6.2475 32.18625 -6.375 33.3125 C-7 37 -7 37 -9 40 C-10.21377915 35.02350549 -9.47136627 31.74312796 -8 27 C-7.34978192 24.80391183 -6.70154663 22.60723615 -6.0546875 20.41015625 C-5.32847341 17.96083417 -4.60190136 15.5116182 -3.875 13.0625 C-3.50246094 11.80630859 -3.12992188 10.55011719 -2.74609375 9.25585938 C-1.83103856 6.17048099 -0.9156645 3.0851976 0 0 Z " fill="#6334AE" transform="translate(233,169)"/>
<path d="M0 0 C1.45880109 0.14107747 2.91703551 0.28802415 4.375 0.4375 C5.59316406 0.55931641 5.59316406 0.55931641 6.8359375 0.68359375 C9 1 9 1 11 2 C11 3.98 11 5.96 11 8 C10.01 8 9.02 8 8 8 C8 8.66 8 9.32 8 10 C5.69 10 3.38 10 1 10 C1 9.34 1 8.68 1 8 C-0.32 7.67 -1.64 7.34 -3 7 C-2.67 5.35 -2.34 3.7 -2 2 C-1.34 2 -0.68 2 0 2 C0 1.34 0 0.68 0 0 Z " fill="#8712CC" transform="translate(217,286)"/>
<path d="M0 0 C0.66 0 1.32 0 2 0 C2 4.62 2 9.24 2 14 C1.34 14 0.68 14 0 14 C-0.75427297 18.97906259 -0.75427297 18.97906259 -1 24 C-1.66 24 -2.32 24 -3 24 C-5.33248076 18.31457814 -6.31931044 12.54601993 -4.13671875 6.6796875 C-1.66563604 1.66563604 -1.66563604 1.66563604 0 0 Z " fill="#872EC4" transform="translate(323,263)"/>
<path d="M0 0 C5.445 1.485 5.445 1.485 11 3 C9.92472937 5.15054127 8.84596361 7.29943523 7.74609375 9.4375 C7.31425781 10.283125 6.88242188 11.12875 6.4375 12 C6.00308594 12.845625 5.56867188 13.69125 5.12109375 14.5625 C4.12654496 16.72486392 3.47847721 18.67750386 3 21 C1.68 21.33 0.36 21.66 -1 22 C-0.47731534 19.23723823 0.10869587 16.6739124 1 14 C1.22325814 11.94106379 1.40705759 9.87766347 1.5625 7.8125 C1.64628906 6.72582031 1.73007813 5.63914062 1.81640625 4.51953125 C1.87699219 3.68808594 1.93757812 2.85664063 2 2 C1.34 2 0.68 2 0 2 C0 1.34 0 0.68 0 0 Z " fill="#9258C4" transform="translate(235,275)"/>
<path d="M0 0 C-0.70125 0.35191406 -1.4025 0.70382813 -2.125 1.06640625 C-15.38187697 7.96502565 -21.4011854 14.87506944 -26 29 C-26.33 29 -26.66 29 -27 29 C-27.50980701 22.88231587 -26.04027613 19.2564481 -23 14 C-22.54625 13.13375 -22.0925 12.2675 -21.625 11.375 C-17.06220813 4.70630419 -8.68893954 -2.89631318 0 0 Z " fill="#DFCAEF" transform="translate(258,193)"/>
<path d="M0 0 C5.28 0 10.56 0 16 0 C15.34 0.66 14.68 1.32 14 2 C16.475 2.495 16.475 2.495 19 3 C17.87548273 5.9719385 16.77706209 8.33440687 15 11 C14.67 9.02 14.34 7.04 14 5 C11.36 4.67 8.72 4.34 6 4 C6 4.66 6 5.32 6 6 C1.69767442 10.76744186 1.69767442 10.76744186 -2 12 C-0.74194623 7.49197399 0.90407165 4.5087188 4 1 C2.68 0.67 1.36 0.34 0 0 Z " fill="#E6CBF9" transform="translate(242,277)"/>
<path d="M0 0 C0.66 0.33 1.32 0.66 2 1 C1.75765625 1.969375 1.5153125 2.93875 1.265625 3.9375 C1.02585938 4.8975293 1.02585938 4.8975293 0.78125 5.87695312 C0.42309685 7.308249 0.06369469 8.73923285 -0.296875 10.16992188 C-1.23215132 13.88829476 -2.14824397 17.60890934 -3.015625 21.34375 C-4.65791036 28.3283312 -6.35075017 34.74414315 -10 41 C-11.21418984 37.49625338 -10.77046423 35.32865332 -9.70703125 31.81640625 C-9.40804932 30.81158203 -9.10906738 29.80675781 -8.80102539 28.77148438 C-8.47481201 27.71251953 -8.14859863 26.65355469 -7.8125 25.5625 C-7.48950928 24.48677734 -7.16651855 23.41105469 -6.83374023 22.30273438 C-5.89919403 19.19866409 -4.95158068 16.09888391 -4 13 C-3.54653482 11.50921802 -3.09335776 10.01834832 -2.640625 8.52734375 C-1.77079376 5.68148285 -0.89265885 2.83876603 0 0 Z " fill="#925FD4" transform="translate(231,169)"/>
<path d="M0 0 C0.66 0 1.32 0 2 0 C2.33 5.61 2.66 11.22 3 17 C3.66 17.33 4.32 17.66 5 18 C3.68 21.3 2.36 24.6 1 28 C-2.53396051 24.46603949 -2.7385729 22.87997262 -3 18 C-2.01 16.515 -2.01 16.515 -1 15 C-0.34 15 0.32 15 1 15 C0.67 10.05 0.34 5.1 0 0 Z " fill="#A030E4" transform="translate(324,262)"/>
<path d="M0 0 C1.65 1.32 3.3 2.64 5 4 C5 5.32 5 6.64 5 8 C5.66 8 6.32 8 7 8 C7 11.96 7 15.92 7 20 C6.34 20.33 5.68 20.66 5 21 C5 17.37 5 13.74 5 10 C4.34 10 3.68 10 3 10 C3 11.32 3 12.64 3 14 C2.01 14 1.02 14 0 14 C0 9.38 0 4.76 0 0 Z " fill="#8520C2" transform="translate(230,269)"/>
<path d="M0 0 C0 0.33 0 0.66 0 1 C-17.45388696 4.11568519 -35.31384387 4.23102381 -53 4 C-53 3.67 -53 3.34 -53 3 C-47.86350796 2.56478908 -42.72640561 2.13796388 -37.58862305 1.71826172 C-35.84788097 1.57494987 -34.1073125 1.42951015 -32.36694336 1.28173828 C-21.54563232 0.36462515 -10.86352701 -0.22201929 0 0 Z " fill="#BF5EDF" transform="translate(265,355)"/>
<path d="M0 0 C2.69300313 3.45630657 5.03208521 7.11554069 7.375 10.8125 C10.45572552 15.64370891 13.59582557 20.38789271 17 25 C13.63408134 23.55746343 11.48952921 21.66735273 9 19 C8.67 20.32 8.34 21.64 8 23 C8.66 23 9.32 23 10 23 C10.33 24.32 10.66 25.64 11 27 C8.01007312 24.39339708 6.20864683 22.74516726 5.125 18.875 C5 16 5 16 6 13 C5.05070887 11.31073912 5.05070887 11.31073912 3.625 9.6875 C1.18358411 6.50892529 0.29749407 4.06575224 0 0 Z " fill="#E7BEFB" transform="translate(173,326)"/>
<path d="M0 0 C0.92232422 0.00451172 1.84464844 0.00902344 2.79492188 0.01367188 C5.05085048 0.02536062 7.30663967 0.04174545 9.5625 0.0625 C9.5625 0.7225 9.5625 1.3825 9.5625 2.0625 C8.9025 2.0625 8.2425 2.0625 7.5625 2.0625 C7.5625 2.7225 7.5625 3.3825 7.5625 4.0625 C9.2125 4.0625 10.8625 4.0625 12.5625 4.0625 C12.5625 6.7025 12.5625 9.3425 12.5625 12.0625 C12.2325 12.0625 11.9025 12.0625 11.5625 12.0625 C11.5625 9.7525 11.5625 7.4425 11.5625 5.0625 C8.2625 5.0625 4.9625 5.0625 1.5625 5.0625 C1.5625 4.0725 1.5625 3.0825 1.5625 2.0625 C-4.7075 2.0625 -10.9775 2.0625 -17.4375 2.0625 C-17.4375 1.7325 -17.4375 1.4025 -17.4375 1.0625 C-11.58861957 0.04355924 -5.92830831 -0.05548453 0 0 Z " fill="#9F37D7" transform="translate(254.4375,333.9375)"/>
<path d="M0 0 C3.524505 4.59718043 4.17672042 7.00042064 4.25 12.875 C4.27578125 14.10992187 4.3015625 15.34484375 4.328125 16.6171875 C3.98550073 20.14948054 3.40930359 21.4765715 1 24 C1 23.34 1 22.68 1 22 C0.34 22 -0.32 22 -1 22 C-0.76023437 21.195625 -0.76023437 21.195625 -0.515625 20.375 C0.09905788 17.54373338 0.20654859 14.89676082 0.25 12 C0.27578125 10.96875 0.3015625 9.9375 0.328125 8.875 C-0.03752874 5.67117675 -0.85416668 4.34912279 -3 2 C-2.34 2 -1.68 2 -1 2 C-0.67 1.34 -0.34 0.68 0 0 Z " fill="#DFD2E6" transform="translate(310,210)"/>
<path d="M0 0 C0.33 0.66 0.66 1.32 1 2 C1.804375 1.979375 2.60875 1.95875 3.4375 1.9375 C6 2 6 2 7 3 C7.125 6 7.125 6 7 9 C6 10 6 10 4.15234375 10.09765625 C2.1015625 10.06510417 0.05078125 10.03255208 -2 10 C-1.85950482 8.52031676 -1.71245174 7.04125484 -1.5625 5.5625 C-1.48128906 4.73878906 -1.40007812 3.91507813 -1.31640625 3.06640625 C-1 1 -1 1 0 0 Z " fill="#570E83" transform="translate(233,216)"/>
<path d="M0 0 C0 0.99 0 1.98 0 3 C-2 4.33333333 -4 5.66666667 -6 7 C-6 7.99 -6 8.98 -6 10 C-5.67 9.34 -5.34 8.68 -5 8 C-4.34 8 -3.68 8 -3 8 C-3 8.99 -3 9.98 -3 11 C-5.375 12.75 -5.375 12.75 -8 14 C-8.66 13.67 -9.32 13.34 -10 13 C-13.31749961 12.14935907 -14.67803635 11.89267878 -18 13 C-18 12.34 -18 11.68 -18 11 C-16.45532227 9.87084961 -16.45532227 9.87084961 -14.31640625 8.65234375 C-13.55392578 8.21212891 -12.79144531 7.77191406 -12.00585938 7.31835938 C-11.19955078 6.86267578 -10.39324219 6.40699219 -9.5625 5.9375 C-7.97980532 5.03110538 -6.39774017 4.12361033 -4.81640625 3.21484375 C-4.10943604 2.81386475 -3.40246582 2.41288574 -2.67407227 1.99975586 C-1.02743292 1.10894458 -1.02743292 1.10894458 0 0 Z " fill="#EDC7FB" transform="translate(346,370)"/>
<path d="M0 0 C3.89573777 3.63602192 5.84116866 5.97723621 6.265625 11.3828125 C6.26046875 12.61773437 6.2553125 13.85265625 6.25 15.125 C6.25773437 16.98511719 6.25773437 16.98511719 6.265625 18.8828125 C6 22 6 22 4 24 C1.99816335 20.68956974 1.85552959 18.38879909 2.0625 14.5625 C2.16233729 10.1696593 1.9042275 7.50927489 -1 4 C-0.34 4 0.32 4 1 4 C0.67 2.68 0.34 1.36 0 0 Z " fill="#CABCD0" transform="translate(270,219)"/>
<path d="M0 0 C0.99 0.33 1.98 0.66 3 1 C3.12375 1.804375 3.2475 2.60875 3.375 3.4375 C3.684375 4.7059375 3.684375 4.7059375 4 6 C4.66 6.33 5.32 6.66 6 7 C6 9.64 6 12.28 6 15 C2.61391263 13.5488197 0.18826341 11.99873134 -2 9 C-1.82594075 5.63485445 -1.51178502 3.02357005 0 0 Z " fill="#600A8C" transform="translate(206,348)"/>
<path d="M0 0 C0.495 0.309375 0.99 0.61875 1.5 0.9375 C4.97986781 2.41644382 8.24028509 2.62402851 12 3 C11 6 11 6 8.3125 7.75 C4.62569316 9.14124787 2.75749535 8.98410592 -1 8 C-0.67 5.36 -0.34 2.72 0 0 Z " fill="#8420C3" transform="translate(324,290)"/>
<path d="M0 0 C0.33 0 0.66 0 1 0 C1.33 6.93 1.66 13.86 2 21 C1.01 20.67 0.02 20.34 -1 20 C-1 19.01 -1 18.02 -1 17 C-1.66 17 -2.32 17 -3 17 C-3 12.71 -3 8.42 -3 4 C-2.01 4.495 -2.01 4.495 -1 5 C-0.67 3.35 -0.34 1.7 0 0 Z " fill="#7936B2" transform="translate(217,265)"/>
<path d="M0 0 C0.33 0 0.66 0 1 0 C1.19561869 2.0825867 1.38119313 4.16611856 1.5625 6.25 C1.66691406 7.41015625 1.77132812 8.5703125 1.87890625 9.765625 C2 13 2 13 1.4765625 14.984375 C0.74172174 18.09239002 1.35021575 20.86045806 1.8125 24 C1.98394531 25.216875 2.15539062 26.43375 2.33203125 27.6875 C2.90458036 30.52680787 3.53855478 32.53342579 5 35 C4.34 35 3.68 35 3 35 C2.67 35.66 2.34 36.32 2 37 C-1.92603639 25.48362658 -2.12054376 11.92805865 0 0 Z " fill="#FAD8FE" transform="translate(155,259)"/>
<path d="M0 0 C0 0.33 0 0.66 0 1 C-3.63 1.66 -7.26 2.32 -11 3 C-3.08 3 4.84 3 13 3 C13 3.33 13 3.66 13 4 C3.65190221 4.66433182 -5.62122392 5.1598655 -15 5 C-15.33 5.99 -15.66 6.98 -16 8 C-15.67 6.02 -15.34 4.04 -15 2 C-15.66 1.67 -16.32 1.34 -17 1 C-11.27959989 0.1679418 -5.77759884 -0.12036664 0 0 Z " fill="#A335DA" transform="translate(227,353)"/>
<path d="M0 0 C9.57 0 19.14 0 29 0 C29.33 0.66 29.66 1.32 30 2 C29.34 2.66 28.68 3.32 28 4 C27.67 3.67 27.34 3.34 27 3 C25.07521187 2.84193469 23.1450079 2.748865 21.21484375 2.68359375 C20.04501953 2.64169922 18.87519531 2.59980469 17.66992188 2.55664062 C15.82237305 2.49766602 15.82237305 2.49766602 13.9375 2.4375 C12.70193359 2.39431641 11.46636719 2.35113281 10.19335938 2.30664062 C7.12902665 2.20015802 4.06460927 2.09814576 1 2 C0.67 1.34 0.34 0.68 0 0 Z " fill="#9E23E4" transform="translate(309,336)"/>
<path d="M0 0 C0.33 0 0.66 0 1 0 C1.02725341 1.7290774 1.04650987 3.45828176 1.0625 5.1875 C1.07410156 6.15042969 1.08570313 7.11335938 1.09765625 8.10546875 C1.00486622 10.85576513 0.62111685 13.32479591 0 16 C-1.98 16 -3.96 16 -6 16 C-5.67 13.36 -5.34 10.72 -5 8 C-3.68 7.67 -2.36 7.34 -1 7 C-0.67 4.69 -0.34 2.38 0 0 Z " fill="#E5BDF8" transform="translate(239,289)"/>
<path d="M0 0 C0.33 0 0.66 0 1 0 C1.33 10.23 1.66 20.46 2 31 C0.68 31.33 -0.64 31.66 -2 32 C-2 31.34 -2 30.68 -2 30 C-1.34 30 -0.68 30 0 30 C-0.14104691 27.08302989 -0.28764814 24.1665198 -0.4375 21.25 C-0.47681641 20.425 -0.51613281 19.6 -0.55664062 18.75 C-0.59853516 17.95078125 -0.64042969 17.1515625 -0.68359375 16.328125 C-0.72025146 15.5949707 -0.75690918 14.86181641 -0.79467773 14.10644531 C-0.94337158 11.99066686 -0.94337158 11.99066686 -1.54321289 9.95996094 C-2.26533736 6.86150276 -1.58246193 4.08704825 -1 1 C-0.67 0.67 -0.34 0.34 0 0 Z " fill="#EBC5FD" transform="translate(160,264)"/>
<path d="M0 0 C0.66 0 1.32 0 2 0 C2 4.95 2 9.9 2 15 C2.66 15 3.32 15 4 15 C4.33 16.65 4.66 18.3 5 20 C4.01 20 3.02 20 2 20 C2 19.34 2 18.68 2 18 C-0.99324263 19.0975223 -1.84610901 19.67682892 -3.25 22.625 C-3.4975 23.40875 -3.745 24.1925 -4 25 C-4.66 25 -5.32 25 -6 25 C-6.33 23.68 -6.66 22.36 -7 21 C-6.4946875 20.74089844 -5.989375 20.48179687 -5.46875 20.21484375 C-3.03896246 18.63837445 -1.62272498 17.427987 0 15 C0.63021278 9.93181825 0.40714174 5.07957788 0 0 Z " fill="#A860DD" transform="translate(212,267)"/>
<path d="M0 0 C1.78409802 3.06246747 2.22880021 5.22079273 2.125 8.75 C2.10695312 9.54921875 2.08890625 10.3484375 2.0703125 11.171875 C2.03550781 12.07679688 2.03550781 12.07679688 2 13 C0.35 13 -1.3 13 -3 13 C-3 12.01 -3 11.02 -3 10 C-3.33 9.34 -3.66 8.68 -4 8 C-4.039992 6.00039988 -4.04346799 3.99952758 -4 2 C-3.01 2.495 -3.01 2.495 -2 3 C-1.34 2.01 -0.68 1.02 0 0 Z " fill="#693CB8" transform="translate(214,237)"/>
<path d="M0 0 C0.66 0 1.32 0 2 0 C4 3 4 3 3.625 5.1875 C3.41875 5.785625 3.2125 6.38375 3 7 C2.01 7 1.02 7 0 7 C-0.33 7.66 -0.66 8.32 -1 9 C-3.66666667 6.33333333 -6.33333333 3.66666667 -9 1 C-6.36 1.33 -3.72 1.66 -1 2 C-0.67 1.34 -0.34 0.68 0 0 Z " fill="#8214C0" transform="translate(228,300)"/>
<path d="M0 0 C0.66 0.33 1.32 0.66 2 1 C-0.40032743 3.65299347 -2.87181992 5.2695174 -6 7 C-6.7940625 7.44085938 -7.588125 7.88171875 -8.40625 8.3359375 C-9.72109375 9.03589844 -9.72109375 9.03589844 -11.0625 9.75 C-11.89910156 10.19859375 -12.73570312 10.6471875 -13.59765625 11.109375 C-16.265213 12.09832287 -17.38260955 11.99134419 -20 11 C-5.94547054 2.29815303 -5.94547054 2.29815303 0 0 Z " fill="#350350" transform="translate(283,284)"/>
<path d="M0 0 C0.625 1.8125 0.625 1.8125 1 4 C0.01 5.485 0.01 5.485 -1 7 C-0.01 7.33 0.98 7.66 2 8 C1.34 8 0.68 8 0 8 C0 12.29 0 16.58 0 21 C-0.99 21.33 -1.98 21.66 -3 22 C-3.2693662 5.44894366 -3.2693662 5.44894366 0 0 Z " fill="#7E4AB6" transform="translate(342,253)"/>
<path d="M0 0 C6.66810496 6.07974276 11.44102594 13.74318019 15 22 C14.67 22.99 14.34 23.98 14 25 C13.0234375 23.20963542 12.046875 21.41927083 11.0703125 19.62890625 C10.08589976 17.83381685 10.08589976 17.83381685 8 17 C7.62875 15.4840625 7.62875 15.4840625 7.25 13.9375 C6.20014612 9.77250593 3.936114 6.97962207 1.2421875 3.69921875 C0 2 0 2 0 0 Z " fill="#661BA2" transform="translate(368,204)"/>
<path d="M0 0 C2 2 2 2 2.25 5.5 C2 9 2 9 0 11 C0.33 11.66 0.66 12.32 1 13 C0.01 13 -0.98 13 -2 13 C-2 15.31 -2 17.62 -2 20 C-2.33 20 -2.66 20 -3 20 C-3.33 15.71 -3.66 11.42 -4 7 C-3.34 7 -2.68 7 -2 7 C-1.34 4.69 -0.68 2.38 0 0 Z " fill="#7D53BD" transform="translate(347,228)"/>
<path d="M0 0 C0.33 0 0.66 0 1 0 C1.1875 2.375 1.1875 2.375 1 5 C0.01 5.66 -0.98 6.32 -2 7 C-3.21284876 10.05429073 -3.21284876 10.05429073 -4 13 C-4.33 12.34 -4.66 11.68 -5 11 C-5.99 10.67 -6.98 10.34 -8 10 C-8.66 9.34 -9.32 8.68 -10 8 C-9.44570313 7.59007812 -8.89140625 7.18015625 -8.3203125 6.7578125 C-7.59585937 6.21898437 -6.87140625 5.68015625 -6.125 5.125 C-5.04605469 4.32449219 -5.04605469 4.32449219 -3.9453125 3.5078125 C-1.91747368 2.00126838 -1.91747368 2.00126838 0 0 Z " fill="#915CC8" transform="translate(339,259)"/>
<path d="M0 0 C1.07765625 0.00902344 2.1553125 0.01804688 3.265625 0.02734375 C4.08546875 0.03894531 4.9053125 0.05054688 5.75 0.0625 C5.875 2.9453125 5.875 2.9453125 5.75 6.0625 C3.75 7.9375 3.75 7.9375 1.75 9.0625 C1.09 8.7325 0.43 8.4025 -0.25 8.0625 C0.389375 7.629375 1.02875 7.19625 1.6875 6.75 C4.01746003 5.15010823 4.01746003 5.15010823 4.75 2.0625 C-3.17 2.5575 -3.17 2.5575 -11.25 3.0625 C-10.25 1.0625 -10.25 1.0625 -8.578125 0.44140625 C-5.68791344 -0.02898053 -2.92727465 -0.0318182 0 0 Z " fill="#410861" transform="translate(266.25,192.9375)"/>
<path d="M0 0 C2.31 0 4.62 0 7 0 C6.01 0.66 5.02 1.32 4 2 C4 2.99 4 3.98 4 5 C-0.07723734 6.95031692 -3.31692422 7.21581971 -7.8125 7.125 C-8.97394531 7.10695312 -10.13539063 7.08890625 -11.33203125 7.0703125 C-12.21246094 7.04710937 -13.09289062 7.02390625 -14 7 C-14 6.67 -14 6.34 -14 6 C-13.15695312 5.86722656 -12.31390625 5.73445312 -11.4453125 5.59765625 C-10.34960938 5.42105469 -9.25390625 5.24445313 -8.125 5.0625 C-6.48917969 4.80146484 -6.48917969 4.80146484 -4.8203125 4.53515625 C-2.06178454 4.14448841 -2.06178454 4.14448841 0 3 C0 2.01 0 1.02 0 0 Z " fill="#EDD8F9" transform="translate(296,182)"/>
<path d="M0 0 C0 2.83967231 -0.40267181 5.23735711 -1 8 C-1.66 8 -2.32 8 -3 8 C-3.66 9.32 -4.32 10.64 -5 12 C-6.65 11.67 -8.3 11.34 -10 11 C-10 10.01 -10 9.02 -10 8 C-8.06640625 6.2109375 -8.06640625 6.2109375 -5.5625 4.375 C-4.73878906 3.76398438 -3.91507812 3.15296875 -3.06640625 2.5234375 C-2.04353516 1.76933594 -2.04353516 1.76933594 -1 1 C-0.67 0.67 -0.34 0.34 0 0 Z " fill="#E5C1F8" transform="translate(359,360)"/>
<path d="M0 0 C3.66771845 1.83385923 5.46834996 3.25062829 8.25 6.125 C8.95640625 6.84945313 9.6628125 7.57390625 10.390625 8.3203125 C11.18726563 9.15175781 11.18726563 9.15175781 12 10 C11.01 10.33 10.02 10.66 9 11 C7.68 9.68 6.36 8.36 5 7 C5 7.99 5 8.98 5 10 C4.01 9.67 3.02 9.34 2 9 C2 7.35 2 5.7 2 4 C1.67 5.98 1.34 7.96 1 10 C0.67 10 0.34 10 0 10 C0 6.7 0 3.4 0 0 Z " fill="#6C179C" transform="translate(342,341)"/>
<path d="M0 0 C0 2.97 0 5.94 0 9 C-0.66 9 -1.32 9 -2 9 C-2.66 10.98 -3.32 12.96 -4 15 C-4.33 15 -4.66 15 -5 15 C-5.027193 13.41676312 -5.04648306 11.83338938 -5.0625 10.25 C-5.07410156 9.36828125 -5.08570313 8.4865625 -5.09765625 7.578125 C-5.00640071 5.16897863 -4.88409929 3.2430862 -4 1 C-1 0 -1 0 0 0 Z " fill="#8411C7" transform="translate(325,268)"/>
<path d="M0 0 C0.42796875 0.59296875 0.8559375 1.1859375 1.296875 1.796875 C2.89756074 3.97842687 2.89756074 3.97842687 4.640625 5.578125 C7.82265597 8.88372999 9.18286501 11.48613354 9.1640625 16.078125 C8.97037616 20.07801442 8.52973618 24.03179443 8 28 C7.67 28 7.34 28 7 28 C7 22.72 7 17.44 7 12 C6.01 12 5.02 12 4 12 C3.33333333 10.66666667 2.66666667 9.33333333 2 8 C1.62875 7.34 1.2575 6.68 0.875 6 C0 4 0 4 0 0 Z " fill="#9769C3" transform="translate(219,258)"/>
<path d="M0 0 C0 0.33 0 0.66 0 1 C-2.51943396 1.50812114 -5.04016873 2.00664534 -7.5625 2.5 C-8.26697266 2.64308594 -8.97144531 2.78617188 -9.69726562 2.93359375 C-14.21890238 3.80874925 -18.39487028 4.14523405 -23 4 C-23 3.34 -23 2.68 -23 2 C-15.39701733 -0.48260659 -7.89688807 -0.18508331 0 0 Z " fill="#DDC8E9" transform="translate(282,188)"/>
<path d="M0 0 C2.97 0 5.94 0 9 0 C9 0.66 9 1.32 9 2 C2.5 6 2.5 6 -2 6 C-1.49396008 3.83125748 -1.00016187 2.00032373 0 0 Z " fill="#540E82" transform="translate(276,282)"/>
<path d="M0 0 C0.68359375 1.765625 0.68359375 1.765625 1 4 C-0.21484375 5.921875 -0.21484375 5.921875 -1.9375 7.75 C-2.50339844 8.36359375 -3.06929688 8.9771875 -3.65234375 9.609375 C-4.31943359 10.29773438 -4.31943359 10.29773438 -5 11 C-5.99 10.34 -6.98 9.68 -8 9 C-8 8.01 -8 7.02 -8 6 C-7.195625 5.731875 -6.39125 5.46375 -5.5625 5.1875 C-4.716875 4.795625 -3.87125 4.40375 -3 4 C-2.67 3.01 -2.34 2.02 -2 1 C-1.34 0.67 -0.68 0.34 0 0 Z " fill="#E9E0EC" transform="translate(273,240)"/>
<path d="M0 0 C1.5 1.0625 1.5 1.0625 3 3 C3.1875 6.6875 3.1875 6.6875 3 10 C1.35 10.33 -0.3 10.66 -2 11 C-2 7.7 -2 4.4 -2 1 C-1.34 0.67 -0.68 0.34 0 0 Z " fill="#8C52BF" transform="translate(331,267)"/>
<path d="M0 0 C2.31 0.66 4.62 1.32 7 2 C4.59563974 5.60654039 3.05320393 5.85452932 -1 7 C-1 7.66 -1 8.32 -1 9 C-1.66 9 -2.32 9 -3 9 C-3.33 8.01 -3.66 7.02 -4 6 C-2.0625 2.8125 -2.0625 2.8125 0 0 Z " fill="#EED4F9" transform="translate(215,218)"/>
<path d="M0 0 C1.359375 2.203125 1.359375 2.203125 2.359375 5.203125 C1.369375 5.698125 1.369375 5.698125 0.359375 6.203125 C0.359375 5.543125 0.359375 4.883125 0.359375 4.203125 C-0.630625 4.203125 -1.620625 4.203125 -2.640625 4.203125 C-2.640625 3.213125 -2.640625 2.223125 -2.640625 1.203125 C-9.900625 0.873125 -17.160625 0.543125 -24.640625 0.203125 C-24.640625 -0.126875 -24.640625 -0.456875 -24.640625 -0.796875 C-21.05914832 -1.08117594 -17.47605557 -1.3183038 -13.890625 -1.546875 C-12.36695313 -1.66869141 -12.36695313 -1.66869141 -10.8125 -1.79296875 C-3.2894897 -2.23841015 -3.2894897 -2.23841015 0 0 Z " fill="#9936D1" transform="translate(340.640625,335.796875)"/>
<path d="M0 0 C0.33 0 0.66 0 1 0 C1 4.29 1 8.58 1 13 C0.01 13 -0.98 13 -2 13 C-4.08901197 9.60535554 -4.34361606 6.95158471 -4 3 C-3.34 2.34 -2.68 1.68 -2 1 C-1.67 1.66 -1.34 2.32 -1 3 C-0.67 2.01 -0.34 1.02 0 0 Z " fill="#650C9F" transform="translate(204,278)"/>
<path d="M0 0 C-2.0625 2.5625 -2.0625 2.5625 -5 5 C-9.64026734 5 -12.57645241 4.14966379 -16 1 C-10.61509359 0.08342019 -5.45769811 -0.11138159 0 0 Z " fill="#976ECB" transform="translate(301,272)"/>
<path d="M0 0 C0.99 0 1.98 0 3 0 C3.33 2.64 3.66 5.28 4 8 C1 10 1 10 -1.1875 9.625 C-1.785625 9.41875 -2.38375 9.2125 -3 9 C-2.34 8.67 -1.68 8.34 -1 8 C-0.27306096 6.02111039 0.39816251 4.02045442 1 2 C0.34 1.67 -0.32 1.34 -1 1 C-0.67 0.67 -0.34 0.34 0 0 Z " fill="#E9C3FA" transform="translate(320,289)"/>
<path d="M0 0 C1.6875 2 1.6875 2 3 4 C1.06280622 4.05406122 -0.87481921 4.09282025 -2.8125 4.125 C-3.89144531 4.14820313 -4.97039062 4.17140625 -6.08203125 4.1953125 C-9 4 -9 4 -12 2 C-10.56342755 1.66269158 -9.12569907 1.33030409 -7.6875 1 C-6.88699219 0.814375 -6.08648437 0.62875 -5.26171875 0.4375 C-3 0 -3 0 0 0 Z " fill="#9E28DE" transform="translate(264,350)"/>
<path d="M0 0 C1.125 3.75 1.125 3.75 0 6 C-0.99 6 -1.98 6 -3 6 C-3.33 10.95 -3.66 15.9 -4 21 C-4.66 20.67 -5.32 20.34 -6 20 C-5.96679995 17.60054192 -5.89948338 15.21011893 -5.8125 12.8125 C-5.80669922 12.13896484 -5.80089844 11.46542969 -5.79492188 10.77148438 C-5.61805594 6.74287144 -5.10193561 5.11941921 -2.44921875 2.01171875 C-1.64097656 1.34785156 -0.83273437 0.68398438 0 0 Z " fill="#E2C2F4" transform="translate(333,258)"/>
<path d="M0 0 C-2.20948541 4.92885206 -5.12356782 7.6212526 -10 10 C-12.16015625 9.578125 -12.16015625 9.578125 -14 9 C-12.56351736 7.87370125 -11.12577415 6.7490101 -9.6875 5.625 C-8.88699219 4.99851563 -8.08648437 4.37203125 -7.26171875 3.7265625 C-2.3800905 0 -2.3800905 0 0 0 Z " fill="#34034F" transform="translate(266,202)"/>
<path d="M0 0 C3.25543229 0.34879632 4.01873107 1.02133261 6.25 3.5625 C7.11625 4.7690625 7.11625 4.7690625 8 6 C7.34 6 6.68 6 6 6 C5.67 6.66 5.34 7.32 5 8 C5 7.34 5 6.68 5 6 C4.01 6.33 3.02 6.66 2 7 C0.4375 5.75 0.4375 5.75 -1 4 C-0.6875 1.8125 -0.6875 1.8125 0 0 Z " fill="#F0D2FC" transform="translate(364,184)"/>
<path d="M0 0 C1.6415049 3.2830098 0.51888624 6.42545033 0 10 C1.32 10.33 2.64 10.66 4 11 C2.35 11 0.7 11 -1 11 C-1.99 14.465 -1.99 14.465 -3 18 C-3.33 18 -3.66 18 -4 18 C-4.20647863 12.21859826 -3.71903016 7.53909717 -2 2 C-1.34 1.34 -0.68 0.68 0 0 Z " fill="#5C3375" transform="translate(259,286)"/>
<path d="M0 0 C0.95465783 2.16967689 1.14401212 3.56328793 0.3984375 5.82421875 C-0.35870385 7.5684743 -1.17609198 9.28627131 -2 11 C-2.99 10.67 -3.98 10.34 -5 10 C-4.50769231 3.47692308 -4.50769231 3.47692308 -1.9375 1.0625 C-0.9784375 0.5365625 -0.9784375 0.5365625 0 0 Z " fill="#6A1C9E" transform="translate(230,170)"/>
<path d="M0 0 C1.02577148 0.00676758 1.02577148 0.00676758 2.07226562 0.01367188 C3.73571604 0.0253044 5.3991205 0.04323306 7.0625 0.0625 C7.3925 1.0525 7.7225 2.0425 8.0625 3.0625 C6.5775 2.95421875 6.5775 2.95421875 5.0625 2.84375 C-1.61038579 2.37007052 -8.24338472 1.9258854 -14.9375 2.0625 C-14.9375 1.7325 -14.9375 1.4025 -14.9375 1.0625 C-9.89895894 0.23038724 -5.1249338 -0.0453534 0 0 Z " fill="#B97FD6" transform="translate(251.9375,323.9375)"/>
<path d="M0 0 C3.375 0.625 3.375 0.625 7 2 C8.4375 5.125 8.4375 5.125 9 8 C8.01 7.67 7.02 7.34 6 7 C6 5.68 6 4.36 6 3 C4.68 3 3.36 3 2 3 C2.33 4.32 2.66 5.64 3 7 C2.01 7.495 2.01 7.495 1 8 C-0.42944945 5.64561267 -1.08661261 4.51967567 -0.625 1.75 C-0.41875 1.1725 -0.2125 0.595 0 0 Z " fill="#A136E0" transform="translate(341,276)"/>
<path d="M0 0 C1 3 1 3 1 6 C0.34 6 -0.32 6 -1 6 C-1.12375 7.093125 -1.2475 8.18625 -1.375 9.3125 C-2 13 -2 13 -4 16 C-5.11658501 11.31034294 -4.80619523 8.46236469 -3 4 C-2.34 4 -1.68 4 -1 4 C-0.67 2.68 -0.34 1.36 0 0 Z " fill="#533AA8" transform="translate(228,193)"/>
<path d="M0 0 C2.475 0.99 2.475 0.99 5 2 C4.360625 2.12375 3.72125 2.2475 3.0625 2.375 C2.381875 2.58125 1.70125 2.7875 1 3 C0.67 3.66 0.34 4.32 0 5 C-3.63 5 -7.26 5 -11 5 C-10.67 4.34 -10.34 3.68 -10 3 C-7.71484375 2.5859375 -7.71484375 2.5859375 -4.9375 2.375 C-4.01839844 2.30023438 -3.09929687 2.22546875 -2.15234375 2.1484375 C-1.44207031 2.09945313 -0.73179687 2.05046875 0 2 C0 1.34 0 0.68 0 0 Z " fill="#9242D1" transform="translate(340,274)"/>
<path d="M0 0 C3.96 0 7.92 0 12 0 C12 0.33 12 0.66 12 1 C10.35 1.33 8.7 1.66 7 2 C7 2.99 7 3.98 7 5 C6.34 5 5.68 5 5 5 C5 4.34 5 3.68 5 3 C1.37 3 -2.26 3 -6 3 C-6 2.67 -6 2.34 -6 2 C-4.02 2 -2.04 2 0 2 C0 1.34 0 0.68 0 0 Z " fill="#42145F" transform="translate(280,279)"/>
<path d="M0 0 C1.46418327 5.85673308 -1.3115292 9.82986385 -4 15 C-5.32 14.67 -6.64 14.34 -8 14 C-8 13.34 -8 12.68 -8 12 C-7.34 12 -6.68 12 -6 12 C-6 11.34 -6 10.68 -6 10 C-5.01 10 -4.02 10 -3 10 C-2.01 6.7 -1.02 3.4 0 0 Z " fill="#F2E1FB" transform="translate(230,216)"/>
<path d="M0 0 C0.66 0 1.32 0 2 0 C3.15941038 3.47823115 2.70820884 5.45895578 2 9 C0.125 8.8125 0.125 8.8125 -2 8 C-3.25 5.4375 -3.25 5.4375 -4 3 C-3.01 2.67 -2.02 2.34 -1 2 C-0.67 1.34 -0.34 0.68 0 0 Z " fill="#7F4CC3" transform="translate(218,208)"/>
<path d="M0 0 C0.66 0 1.32 0 2 0 C1.54917531 1.46067199 1.08906463 2.91848032 0.625 4.375 C0.36976563 5.18710938 0.11453125 5.99921875 -0.1484375 6.8359375 C-1 9 -1 9 -3 11 C-3.64767793 13.57061311 -3.64767793 13.57061311 -4 16 C-4.33 16 -4.66 16 -5 16 C-5.7013076 9.40770855 -3.49602186 5.50623443 0 0 Z " fill="#D3BDE2" transform="translate(236,206)"/>
<path d="M0 0 C0.66 0 1.32 0 2 0 C1.67 3.63 1.34 7.26 1 11 C1.99 11.33 2.98 11.66 4 12 C2.35 12.33 0.7 12.66 -1 13 C-1 1 -1 1 0 0 Z " fill="#511478" transform="translate(260,283)"/>
<path d="M0 0 C5.28 0 10.56 0 16 0 C15.01 1.485 15.01 1.485 14 3 C11.6171875 3.29296875 11.6171875 3.29296875 8.875 3.1875 C7.96492187 3.16042969 7.05484375 3.13335937 6.1171875 3.10546875 C5.41851562 3.07066406 4.71984375 3.03585937 4 3 C4 2.34 4 1.68 4 1 C2.68 0.67 1.36 0.34 0 0 Z " fill="#C19DE0" transform="translate(242,277)"/>
<path d="M0 0 C0.99 0.33 1.98 0.66 3 1 C2.38454214 3.31543614 1.75821964 5.62692196 1.125 7.9375 C0.95097656 8.59685547 0.77695313 9.25621094 0.59765625 9.93554688 C0.12523763 11.641503 -0.43215028 13.32339261 -1 15 C-1.99 15.495 -1.99 15.495 -3 16 C-2.68954268 14.0830014 -2.37655329 12.16641277 -2.0625 10.25 C-1.88847656 9.18265625 -1.71445313 8.1153125 -1.53515625 7.015625 C-1.11295829 4.63652407 -0.62797116 2.33084789 0 0 Z " fill="#BFA2E6" transform="translate(227,199)"/>
<path d="M0 0 C0.33 0.99 0.66 1.98 1 3 C1.99 3.33 2.98 3.66 4 4 C2.68 6.31 1.36 8.62 0 11 C-1.125 9.4375 -1.125 9.4375 -2 7 C-1.125 3.25 -1.125 3.25 0 0 Z " fill="#6B209F" transform="translate(230,189)"/>
<path d="M0 0 C1.28147897 3.8444369 0.88370216 7.11775291 0 11 C-1.5625 14 -1.5625 14 -3 16 C-3.66 15.67 -4.32 15.34 -5 15 C-4.35814255 12.68632778 -3.71172608 10.3741043 -3.0625 8.0625 C-2.78889648 7.0734668 -2.78889648 7.0734668 -2.50976562 6.06445312 C-1.11328125 1.11328125 -1.11328125 1.11328125 0 0 Z " fill="#5131AD" transform="translate(230,181)"/>
<path d="M0 0 C0 0.33 0 0.66 0 1 C-1.98 1 -3.96 1 -6 1 C-6.2475 1.763125 -6.495 2.52625 -6.75 3.3125 C-8.10995558 6.2364045 -9.31585826 7.30004356 -12 9 C-12 5 -12 5 -9.9375 2.25 C-6.34721796 -0.50000327 -4.41562483 -0.43290439 0 0 Z " fill="#5A4567" transform="translate(266,221)"/>
<path d="M0 0 C2.475 0.495 2.475 0.495 5 1 C5.20086443 4.71599191 5.1519437 5.77208445 3 9 C2.34 9 1.68 9 1 9 C0.67 6.03 0.34 3.06 0 0 Z M2 2 C3 4 3 4 3 4 Z " fill="#613BB6" transform="translate(342,226)"/>
<path d="M0 0 C0 0.66 0 1.32 0 2 C-0.9075 2.598125 -1.815 3.19625 -2.75 3.8125 C-5.91419912 5.94224941 -7.78547572 7.93373561 -10 11 C-10.99 10.67 -11.98 10.34 -13 10 C-3.28571429 0 -3.28571429 0 0 0 Z " fill="#5E179B" transform="translate(362,197)"/>
<path d="M0 0 C0.66 0 1.32 0 2 0 C2.63934602 5.11476819 0.40533547 8.67254378 -2 13 C-3.18771723 9.57056481 -2.80226223 7.62215325 -1.5625 4.25 C-1.27503906 3.45078125 -0.98757812 2.6515625 -0.69140625 1.828125 C-0.46324219 1.22484375 -0.23507813 0.6215625 0 0 Z " fill="#BC94EC" transform="translate(223,197)"/>
<path d="M0 0 C2.475 0.495 2.475 0.495 5 1 C5 2.32 5 3.64 5 5 C4.34 5 3.68 5 3 5 C3 5.66 3 6.32 3 7 C2.01 7 1.02 7 0 7 C0 4.69 0 2.38 0 0 Z " fill="#8F4DCB" transform="translate(237,278)"/>
<path d="M0 0 C0.33 0.66 0.66 1.32 1 2 C2.65 2 4.3 2 6 2 C6 2.33 6 2.66 6 3 C4.35 3 2.7 3 1 3 C0.84850702 6.62885324 0.84850702 6.62885324 2 10 C0.68 10 -0.64 10 -2 10 C-1.85950482 8.52031676 -1.71245174 7.04125484 -1.5625 5.5625 C-1.48128906 4.73878906 -1.40007812 3.91507813 -1.31640625 3.06640625 C-1 1 -1 1 0 0 Z " fill="#4B1C65" transform="translate(233,216)"/>
<path d="M0 0 C0.33 0.99 0.66 1.98 1 3 C-0.65 4.65 -2.3 6.3 -4 8 C-4 7.34 -4 6.68 -4 6 C-4.99 5.67 -5.98 5.34 -7 5 C-2.25 1.125 -2.25 1.125 0 0 Z " fill="#2A0E3A" transform="translate(249,215)"/>
<path d="M0 0 C0.78375 0.04125 1.5675 0.0825 2.375 0.125 C2.375 0.785 2.375 1.445 2.375 2.125 C1.385 2.125 0.395 2.125 -0.625 2.125 C-0.625 6.085 -0.625 10.045 -0.625 14.125 C-0.955 14.125 -1.285 14.125 -1.625 14.125 C-1.625 10.495 -1.625 6.865 -1.625 3.125 C-2.615 2.795 -3.605 2.465 -4.625 2.125 C-2.625 0.125 -2.625 0.125 0 0 Z " fill="#7018A2" transform="translate(284.625,335.875)"/>
<path d="M0 0 C0.33 0 0.66 0 1 0 C1.66 3.3 2.32 6.6 3 10 C2.01 10.33 1.02 10.66 0 11 C0 10.01 0 9.02 0 8 C-0.66 7.67 -1.32 7.34 -2 7 C-1.34 4.69 -0.68 2.38 0 0 Z " fill="#F4DFF9" transform="translate(237,306)"/>
<path d="M0 0 C0.66 0 1.32 0 2 0 C1.34 3.3 0.68 6.6 0 10 C-0.66 8.68 -1.32 7.36 -2 6 C-2.99 6 -3.98 6 -5 6 C-3.38405168 3.95880212 -1.7143618 1.95927063 0 0 Z " fill="#7C5CBC" transform="translate(220,222)"/>
<path d="M0 0 C0.33 0.66 0.66 1.32 1 2 C0.071875 1.896875 -0.85625 1.79375 -1.8125 1.6875 C-3.3903125 1.8421875 -3.3903125 1.8421875 -5 2 C-6.73538192 4.39224959 -6.73538192 4.39224959 -8 7 C-8.99 7.33 -9.98 7.66 -11 8 C-8.71283018 1.49036283 -7.11151757 -0.47410117 0 0 Z " fill="#D6AAEE" transform="translate(220,217)"/>
<path d="M0 0 C0.33 0 0.66 0 1 0 C0.67 3.3 0.34 6.6 0 10 C0.99 10.33 1.98 10.66 3 11 C2.01 12.485 2.01 12.485 1 14 C0.34 14 -0.32 14 -1 14 C-1.02694851 12.04174127 -1.04637218 10.08337774 -1.0625 8.125 C-1.07410156 7.03445313 -1.08570313 5.94390625 -1.09765625 4.8203125 C-1 2 -1 2 0 0 Z " fill="#F1D2FA" transform="translate(206,274)"/>
<path d="M0 0 C0 0.33 0 0.66 0 1 C-1.04800781 1.09087891 -1.04800781 1.09087891 -2.1171875 1.18359375 C-3.02726562 1.26738281 -3.93734375 1.35117187 -4.875 1.4375 C-5.77992188 1.51871094 -6.68484375 1.59992188 -7.6171875 1.68359375 C-10.01110861 1.86989285 -10.01110861 1.86989285 -12 3 C-14.6723621 3.13415472 -17.32250488 3.04318541 -20 3 C-20 2.67 -20 2.34 -20 2 C-13.38190423 -0.46254726 -6.99560484 -0.18935472 0 0 Z " fill="#684B79" transform="translate(280,265)"/>
<path d="M0 0 C0.66 0.33 1.32 0.66 2 1 C1.01 3.64 0.02 6.28 -1 9 C-2.32 8.34 -3.64 7.68 -5 7 C-3.75023244 3.34683329 -3.32901247 2.21934164 0 0 Z " fill="#3A1351" transform="translate(240,206)"/>
<path d="M0 0 C1.41623216 -0.05447047 2.83308191 -0.09300508 4.25 -0.125 C5.03890625 -0.14820313 5.8278125 -0.17140625 6.640625 -0.1953125 C9 0 9 0 13 2 C10.03 2.66 7.06 3.32 4 4 C4.33 3.01 4.66 2.02 5 1 C3.35 1 1.7 1 0 1 C0 0.67 0 0.34 0 0 Z " fill="#9A72C1" transform="translate(256,279)"/>
<path d="M0 0 C-3 2 -3 2 -6 3 C-6.33 3.66 -6.66 4.32 -7 5 C-9.475 4.01 -9.475 4.01 -12 3 C-11.67 2.34 -11.34 1.68 -11 1 C-7.29882394 0.15882362 -3.78728969 -0.11139087 0 0 Z " fill="#9C6ECA" transform="translate(317,270)"/>
<path d="M0 0 C0.33 0 0.66 0 1 0 C1.22127098 2.29045368 1.4266504 4.58244764 1.625 6.875 C1.74101562 8.15117187 1.85703125 9.42734375 1.9765625 10.7421875 C1.98429687 11.81726563 1.99203125 12.89234375 2 14 C1.34 14.66 0.68 15.32 0 16 C0 15.34 0 14.68 0 14 C-0.66 14 -1.32 14 -2 14 C-1.34 9.38 -0.68 4.76 0 0 Z " fill="#B0A2B5" transform="translate(311,218)"/>
<path d="M0 0 C2.13093906 1.06546953 3.36587557 2.29159719 5 4 C3.35 4.66 1.7 5.32 0 6 C-0.33 5.34 -0.66 4.68 -1 4 C-3.31 4.33 -5.62 4.66 -8 5 C-7.4225 4.731875 -6.845 4.46375 -6.25 4.1875 C-3.9674132 2.98280141 -2.0262058 1.59201885 0 0 Z " fill="#3E1652" transform="translate(250,212)"/>
<path d="M0 0 C0.99 0.33 1.98 0.66 3 1 C3.185625 2.2065625 3.185625 2.2065625 3.375 3.4375 C3.58125 4.283125 3.7875 5.12875 4 6 C4.66 6.33 5.32 6.66 6 7 C5.67 7.66 5.34 8.32 5 9 C2.5 7.875 2.5 7.875 0 6 C-0.3125 2.8125 -0.3125 2.8125 0 0 Z " fill="#701A9D" transform="translate(206,348)"/>
<path d="M0 0 C0.33 0 0.66 0 1 0 C1.13277344 0.69867188 1.26554688 1.39734375 1.40234375 2.1171875 C1.57894531 3.02726563 1.75554687 3.93734375 1.9375 4.875 C2.19853516 6.23238281 2.19853516 6.23238281 2.46484375 7.6171875 C2.89963701 9.99956317 2.89963701 9.99956317 4 12 C1.5625 11.3125 1.5625 11.3125 -1 10 C-1.8125 7.375 -1.8125 7.375 -2 5 C-1.67 5 -1.34 5 -1 5 C-0.67 3.35 -0.34 1.7 0 0 Z " fill="#9462CB" transform="translate(209,237)"/>
<path d="M0 0 C0 3 0 3 -1.390625 4.421875 C-2.00421875 4.86015625 -2.6178125 5.2984375 -3.25 5.75 C-4.15492188 6.42289062 -4.15492188 6.42289062 -5.078125 7.109375 C-7.47352178 8.21943692 -8.56754322 7.88257281 -11 7 C-10.28972656 6.57847656 -9.57945312 6.15695312 -8.84765625 5.72265625 C-7.92855469 5.17480469 -7.00945312 4.62695312 -6.0625 4.0625 C-5.14597656 3.51722656 -4.22945313 2.97195313 -3.28515625 2.41015625 C-1.11587323 1.19267827 -1.11587323 1.19267827 0 0 Z " fill="#D7A7EC" transform="translate(346,370)"/>
<path d="M0 0 C0.66 0.99 1.32 1.98 2 3 C0.8553125 3.6496875 0.8553125 3.6496875 -0.3125 4.3125 C-2.58093768 5.73686785 -4.2199723 7.03260097 -6 9 C-6.99 8.34 -7.98 7.68 -9 7 C-3.25 3 -3.25 3 -1 3 C-0.67 2.01 -0.34 1.02 0 0 Z " fill="#C4A7D5" transform="translate(323,253)"/>
<path d="M0 0 C0.66 0 1.32 0 2 0 C2 1.98 2 3.96 2 6 C0.68 6 -0.64 6 -2 6 C-1.125 1.125 -1.125 1.125 0 0 Z " fill="#5633B4" transform="translate(221,210)"/>
<path d="M0 0 C0.99 0 1.98 0 3 0 C1.84826645 2.46800047 0.95216435 4.04783565 -1 6 C-1.99 6 -2.98 6 -4 6 C-2.84826645 3.53199953 -1.95216435 1.95216435 0 0 Z " fill="#E6D5F3" transform="translate(240,200)"/>
<path d="M0 0 C5.53846154 0.61538462 5.53846154 0.61538462 7.875 2.5625 C8.431875 3.2740625 8.431875 3.2740625 9 4 C8.67 4.99 8.34 5.98 8 7 C6.66382648 6.02471263 5.3311249 5.04466681 4 4.0625 C3.2575 3.51722656 2.515 2.97195312 1.75 2.41015625 C1.1725 1.94480469 0.595 1.47945312 0 1 C0 0.67 0 0.34 0 0 Z " fill="#75319F" transform="translate(315,185)"/>
<path d="M0 0 C0 0.99 0 1.98 0 3 C-1.53125 4.38671875 -1.53125 4.38671875 -3.5 5.6875 C-4.47453125 6.34298828 -4.47453125 6.34298828 -5.46875 7.01171875 C-5.9740625 7.33785156 -6.479375 7.66398438 -7 8 C-7 7.01 -7 6.02 -7 5 C-5.46875 3.61328125 -5.46875 3.61328125 -3.5 2.3125 C-2.8503125 1.87550781 -2.200625 1.43851563 -1.53125 0.98828125 C-1.0259375 0.66214844 -0.520625 0.33601562 0 0 Z " fill="#6019A0" transform="translate(219,177)"/>
<path d="M0 0 C2.97 0.495 2.97 0.495 6 1 C5.34 3.97 4.68 6.94 4 10 C3.67 10 3.34 10 3 10 C3 7.69 3 5.38 3 3 C2.01 2.67 1.02 2.34 0 2 C0 1.34 0 0.68 0 0 Z " fill="#7517A8" transform="translate(264,350)"/>
<path d="M0 0 C3.3 0.33 6.6 0.66 10 1 C9.67 1.66 9.34 2.32 9 3 C7.35 2.67 5.7 2.34 4 2 C4 2.99 4 3.98 4 5 C3.34 5 2.68 5 2 5 C2 4.34 2 3.68 2 3 C1.34 3 0.68 3 0 3 C0 2.01 0 1.02 0 0 Z " fill="#8A14D0" transform="translate(326,292)"/>
<path d="M0 0 C0.99 0.495 0.99 0.495 2 1 C2.4140625 3.28515625 2.4140625 3.28515625 2.625 6.0625 C2.69976562 6.98160156 2.77453125 7.90070313 2.8515625 8.84765625 C2.92503906 9.91306641 2.92503906 9.91306641 3 11 C2.67 10.01 2.34 9.02 2 8 C1.34 8 0.68 8 0 8 C0 5.36 0 2.72 0 0 Z " fill="#6C24A1" transform="translate(216,251)"/>
<path d="M0 0 C0.66 0.33 1.32 0.66 2 1 C0.41641358 4.16717283 -0.45263699 5.73268318 -3.6875 7.3125 C-4.450625 7.539375 -5.21375 7.76625 -6 8 C-4.55746343 4.63408134 -2.66735273 2.48952921 0 0 Z " fill="#59326E" transform="translate(244,200)"/>
<path d="M0 0 C2.31 0 4.62 0 7 0 C3.67692308 3.93846154 3.67692308 3.93846154 0.25 4.25 C-0.4925 4.1675 -1.235 4.085 -2 4 C-1.34 2.68 -0.68 1.36 0 0 Z " fill="#992BD5" transform="translate(286,350)"/>
<path d="M0 0 C2.31 0.66 4.62 1.32 7 2 C6.67 2.66 6.34 3.32 6 4 C4.02 4 2.04 4 0 4 C0 2.68 0 1.36 0 0 Z " fill="#6F259D" transform="translate(320,321)"/>
<path d="M0 0 C0.66 0 1.32 0 2 0 C2 2.31 2 4.62 2 7 C0.68 6.34 -0.64 5.68 -2 5 C-1.125 1.125 -1.125 1.125 0 0 Z " fill="#EAD9F7" transform="translate(237,298)"/>
<path d="M0 0 C0.33 1.32 0.66 2.64 1 4 C-1.64 3.67 -4.28 3.34 -7 3 C-7 2.34 -7 1.68 -7 1 C-4.53721199 -0.231394 -2.7204945 -0.07159196 0 0 Z " fill="#8C38C1" transform="translate(226,284)"/>
<path d="M0 0 C1.65 1.32 3.3 2.64 5 4 C4.67 5.32 4.34 6.64 4 8 C3.34 8 2.68 8 2 8 C0.74335022 5.09399739 0 3.20395416 0 0 Z " fill="#775ABA" transform="translate(336,214)"/>
<path d="M0 0 C-0.86625 0.3403125 -0.86625 0.3403125 -1.75 0.6875 C-4.55338976 2.32281069 -6.00442154 4.47226728 -8 7 C-8.66 7 -9.32 7 -10 7 C-7.6551217 1.76911763 -5.98347266 -0.48514643 0 0 Z " fill="#580D90" transform="translate(200,198)"/>
<path d="M0 0 C1.32 0.33 2.64 0.66 4 1 C4.33 2.32 4.66 3.64 5 5 C4.01 5.495 4.01 5.495 3 6 C1.5 4.6875 1.5 4.6875 0 3 C0 2.01 0 1.02 0 0 Z " fill="#EDD4F6" transform="translate(190,356)"/>
<path d="M0 0 C0.99 0 1.98 0 3 0 C3 0.66 3 1.32 3 2 C5.31 2 7.62 2 10 2 C10 2.33 10 2.66 10 3 C6.37 3.33 2.74 3.66 -1 4 C-0.67 2.68 -0.34 1.36 0 0 Z " fill="#AE52D6" transform="translate(209,340)"/>
<path d="M0 0 C0.103125 0.61875 0.20625 1.2375 0.3125 1.875 C0.87525373 4.36526484 0.87525373 4.36526484 4 6 C4 6.66 4 7.32 4 8 C1.03 7.505 1.03 7.505 -2 7 C-1.34 4.69 -0.68 2.38 0 0 Z " fill="#9934CE" transform="translate(210,333)"/>
<path d="M0 0 C0.66 0.33 1.32 0.66 2 1 C1.01 3.31 0.02 5.62 -1 8 C-1.66 8 -2.32 8 -3 8 C-3.75 6.25 -3.75 6.25 -4 4 C-2.0625 1.75 -2.0625 1.75 0 0 Z " fill="#AF58E2" transform="translate(209,284)"/>
<path d="M0 0 C0.33 0 0.66 0 1 0 C1 4.29 1 8.58 1 13 C0.01 13 -0.98 13 -2 13 C-2 12.01 -2 11.02 -2 10 C-1.34 10 -0.68 10 0 10 C0 6.7 0 3.4 0 0 Z " fill="#7C35A2" transform="translate(204,278)"/>
<path d="M0 0 C0 0.66 0 1.32 0 2 C-1.98 2.33 -3.96 2.66 -6 3 C-6.33 3.99 -6.66 4.98 -7 6 C-7.66 5.67 -8.32 5.34 -9 5 C-8.67 4.01 -8.34 3.02 -8 2 C-5.27366306 0.89786379 -2.95855967 0 0 0 Z " fill="#8952C1" transform="translate(319,270)"/>
<path d="M0 0 C0.66 0.33 1.32 0.66 2 1 C1.01 2.485 1.01 2.485 0 4 C-2.8203125 4.29296875 -2.8203125 4.29296875 -6.125 4.1875 C-7.76855469 4.14689453 -7.76855469 4.14689453 -9.4453125 4.10546875 C-10.70988281 4.05326172 -10.70988281 4.05326172 -12 4 C-12 3.67 -12 3.34 -12 3 C-10.95199219 2.92652344 -10.95199219 2.92652344 -9.8828125 2.8515625 C-8.97273438 2.77679688 -8.06265625 2.70203125 -7.125 2.625 C-6.22007812 2.55539063 -5.31515625 2.48578125 -4.3828125 2.4140625 C-1.82058097 2.20431868 -1.82058097 2.20431868 0 0 Z " fill="#604B6E" transform="translate(306,239)"/>
<path d="M0 0 C-0.375 2.4375 -0.375 2.4375 -1 5 C-1.99 5.495 -1.99 5.495 -3 6 C-3.99 4.68 -4.98 3.36 -6 2 C-3 0 -3 0 0 0 Z " fill="#E4DAE4" transform="translate(311,232)"/>
<path d="M0 0 C0.66 0 1.32 0 2 0 C2 0.66 2 1.32 2 2 C2.99 1.67 3.98 1.34 5 1 C6 4 6 4 5 7 C4.34 7 3.68 7 3 7 C2.01 4.69 1.02 2.38 0 0 Z " fill="#E7C6FD" transform="translate(384,218)"/>
<path d="M0 0 C0.33 0.66 0.66 1.32 1 2 C-0.175625 2.6496875 -0.175625 2.6496875 -1.375 3.3125 C-4.21698375 4.89220247 -4.21698375 4.89220247 -6 8 C-6.33 6.35 -6.66 4.7 -7 3 C-4.69 2.01 -2.38 1.02 0 0 Z " fill="#611AA2" transform="translate(241,166)"/>
<path d="M0 0 C0 3 0 3 -2 6 C-2.66 6 -3.32 6 -4 6 C-4.33 6.66 -4.66 7.32 -5 8 C-5 7.34 -5 6.68 -5 6 C-5.66 5.67 -6.32 5.34 -7 5 C-6.030625 4.360625 -5.06125 3.72125 -4.0625 3.0625 C-1.23963731 1.3034741 -1.23963731 1.3034741 0 0 Z " fill="#730EB0" transform="translate(346,288)"/>
<path d="M0 0 C1.32 0 2.64 0 4 0 C2.87548273 2.9719385 1.77706209 5.33440687 0 8 C0 5.36 0 2.72 0 0 Z " fill="#D5B8E8" transform="translate(257,280)"/>
<path d="M0 0 C1.5 1.375 1.5 1.375 3 3 C3 3.66 3 4.32 3 5 C1.35 5.33 -0.3 5.66 -2 6 C-1.125 1.125 -1.125 1.125 0 0 Z " fill="#25043A" transform="translate(236,212)"/>
<path d="M0 0 C-2.64 1.65 -5.28 3.3 -8 5 C-7 1 -7 1 -5.125 -0.3125 C-3 -1 -3 -1 0 0 Z " fill="#540E7F" transform="translate(256,209)"/>
<path d="M0 0 C0.66 0 1.32 0 2 0 C2 0.99 2 1.98 2 3 C2.61875 3.12375 3.2375 3.2475 3.875 3.375 C6 4 6 4 8 6 C5.125 5.8125 5.125 5.8125 2 5 C0.625 2.4375 0.625 2.4375 0 0 Z " fill="#E0B6F8" transform="translate(234,271)"/>
<path d="M0 0 C0.66 0 1.32 0 2 0 C2 1.32 2 2.64 2 4 C0.02 4.66 -1.96 5.32 -4 6 C-2.84826645 3.53199953 -1.95216435 1.95216435 0 0 Z " fill="#2F1143" transform="translate(316,228)"/>
<path d="M0 0 C0.33 0.66 0.66 1.32 1 2 C-3.75 6.875 -3.75 6.875 -6 8 C-4.55746343 4.63408134 -2.66735273 2.48952921 0 0 Z " fill="#500E75" transform="translate(246,202)"/>
<path d="M0 0 C1 3 1 3 1 6 C0.34 6 -0.32 6 -1 6 C-1.33 7.32 -1.66 8.64 -2 10 C-2.33 8.02 -2.66 6.04 -3 4 C-2.34 4 -1.68 4 -1 4 C-0.67 2.68 -0.34 1.36 0 0 Z " fill="#6C41B6" transform="translate(228,193)"/>
</svg>
